<?xml version="1.0" encoding="UTF-8"?>
<!DOCTYPE svg PUBLIC "-//W3C//DTD SVG 1.1//EN" "http://www.w3.org/Graphics/SVG/1.1/DTD/svg11.dtd">
<svg xmlns="http://www.w3.org/2000/svg" style="background: #ffffff; background-color: #ffffff; color-scheme: light;" xmlns:xlink="http://www.w3.org/1999/xlink" version="1.1" width="1169px" height="827px" viewBox="-0.5 -0.5 1169 827"><defs/><rect fill="#ffffff" width="100%" height="100%" x="0" y="0" style="fill: rgb(255, 255, 255);"/><g><g data-cell-id="0"><g data-cell-id="1"><g data-cell-id="Np6NXg_4izOHI7aook8U-42"><g><path d="M 260.75 248.3 L 283.4 248.3 Q 293.4 248.3 293.4 238.3 L 293.4 230.75 Q 293.4 223.2 303.4 223.2 L 325.89 223.19" fill="none" stroke="#666666" stroke-width="4" stroke-miterlimit="10" pointer-events="stroke" style="stroke: rgb(102, 102, 102);"/></g></g><g data-cell-id="Np6NXg_4izOHI7aook8U-43"><g><path d="M 260.75 162.26 L 283.4 162.29 Q 293.4 162.3 293.4 172.3 L 293.4 179.8 Q 293.4 187.3 303.4 187.31 L 325.89 187.35" fill="none" stroke="#666666" stroke-width="4" stroke-miterlimit="10" pointer-events="stroke" style="stroke: rgb(102, 102, 102);"/></g></g><g data-cell-id="Np6NXg_4izOHI7aook8U-57"><g><path d="M 260.75 420.4 L 283.4 420.4 Q 293.4 420.4 293.4 410.4 L 293.4 402.8 Q 293.4 395.2 303.4 395.21 L 325.89 395.23" fill="none" stroke="#666666" stroke-width="4" stroke-miterlimit="10" pointer-events="stroke" style="stroke: rgb(102, 102, 102);"/></g></g><g data-cell-id="Np6NXg_4izOHI7aook8U-58"><g><path d="M 260.75 334.3 L 283.4 334.3 Q 293.4 334.3 293.4 344.3 L 293.4 351.85 Q 293.4 359.4 303.4 359.4 L 325.89 359.38" fill="none" stroke="#666666" stroke-width="4" stroke-miterlimit="10" pointer-events="stroke" style="stroke: rgb(102, 102, 102);"/></g></g><g data-cell-id="Np6NXg_4izOHI7aook8U-63"><g><path d="M 544.64 205.27 L 567.3 205.29 Q 577.3 205.3 577.3 215.3 L 577.3 263 Q 577.3 273 587.3 273 L 609.78 273.01" fill="none" stroke="#666666" stroke-width="4" stroke-miterlimit="10" pointer-events="stroke" style="stroke: rgb(102, 102, 102);"/></g></g><g data-cell-id="Np6NXg_4izOHI7aook8U-64"><g><path d="M 544.64 377.31 L 567.3 377.3 Q 577.3 377.3 577.3 367.3 L 577.3 318.8 Q 577.3 308.8 587.3 308.81 L 609.78 308.85" fill="none" stroke="#666666" stroke-width="4" stroke-miterlimit="10" pointer-events="stroke" style="stroke: rgb(102, 102, 102);"/></g></g><g data-cell-id="cP9SBrHYOixEWWslTNj9-5"><g><path d="M 260.75 592.4 L 283.4 592.4 Q 293.4 592.4 293.4 582.4 L 293.4 574.85 Q 293.4 567.3 303.4 567.29 L 325.89 567.27" fill="none" stroke="#666666" stroke-width="4" stroke-miterlimit="10" pointer-events="stroke" style="stroke: rgb(102, 102, 102);"/></g></g><g data-cell-id="cP9SBrHYOixEWWslTNj9-6"><g><path d="M 260.75 506.33 L 283.4 506.31 Q 293.4 506.3 293.4 516.3 L 293.4 523.85 Q 293.4 531.4 303.4 531.41 L 325.89 531.42" fill="none" stroke="#666666" stroke-width="4" stroke-miterlimit="10" pointer-events="stroke" style="stroke: rgb(102, 102, 102);"/></g></g><g data-cell-id="cP9SBrHYOixEWWslTNj9-11"><g><path d="M 260.75 764.4 L 283.4 764.4 Q 293.4 764.4 293.4 754.4 L 293.4 746.85 Q 293.4 739.3 303.4 739.3 L 325.89 739.3" fill="none" stroke="#666666" stroke-width="4" stroke-miterlimit="10" pointer-events="stroke" style="stroke: rgb(102, 102, 102);"/></g></g><g data-cell-id="cP9SBrHYOixEWWslTNj9-12"><g><path d="M 260.75 678.37 L 283.4 678.39 Q 293.4 678.4 293.4 688.4 L 293.4 695.95 Q 293.4 703.5 303.4 703.49 L 325.89 703.46" fill="none" stroke="#666666" stroke-width="4" stroke-miterlimit="10" pointer-events="stroke" style="stroke: rgb(102, 102, 102);"/></g></g><g data-cell-id="cP9SBrHYOixEWWslTNj9-17"><g><path d="M 544.64 549.34 L 567.3 549.31 Q 577.3 549.3 577.3 559.3 L 577.3 607.1 Q 577.3 617.1 587.3 617.1 L 609.78 617.08" fill="none" stroke="#666666" stroke-width="4" stroke-miterlimit="10" pointer-events="stroke" style="stroke: rgb(102, 102, 102);"/></g></g><g data-cell-id="cP9SBrHYOixEWWslTNj9-18"><g><path d="M 544.64 721.38 L 567.3 721.39 Q 577.3 721.4 577.3 711.4 L 577.3 662.9 Q 577.3 652.9 587.3 652.91 L 609.78 652.93" fill="none" stroke="#666666" stroke-width="4" stroke-miterlimit="10" pointer-events="stroke" style="stroke: rgb(102, 102, 102);"/></g></g><g data-cell-id="cP9SBrHYOixEWWslTNj9-40"><g><path d="M 828.53 291 L 851.1 291 Q 861.1 291 861.1 301 L 861.1 436.1 Q 861.1 446.1 871.1 446.11 L 893.67 446.12" fill="none" stroke="#666666" stroke-width="4" stroke-miterlimit="10" pointer-events="stroke" style="stroke: rgb(102, 102, 102);"/></g></g><g data-cell-id="cP9SBrHYOixEWWslTNj9-41"><g><path d="M 893.67 481.96 L 871.1 481.99 Q 861.1 482 861.1 492 L 861.1 625 Q 861.1 635 851.1 635 L 828.53 635.01" fill="none" stroke="#666666" stroke-width="4" stroke-miterlimit="10" pointer-events="stroke" style="stroke: rgb(102, 102, 102);"/></g></g><g data-cell-id="7TzrphOt-DHHnTkeYhhr-1"><g><rect x="597" y="40" width="530" height="40" rx="6" ry="6" fill="#ffffff" stroke="#000000" pointer-events="all" style="fill: rgb(255, 255, 255); stroke: rgb(0, 0, 0);"/></g><g><g fill="#000000" font-family="&quot;Helvetica&quot;" text-anchor="middle" font-size="18px" style="fill: rgb(0, 0, 0);"><text x="861.5" y="67.5">{{ category }}</text></g></g></g><g data-cell-id="7TzrphOt-DHHnTkeYhhr-20"><g/><g data-cell-id="7TzrphOt-DHHnTkeYhhr-6"><g/><g data-cell-id="7TzrphOt-DHHnTkeYhhr-3"><g><rect x="690" y="700" width="220" height="20" fill="#ffffff" stroke="#000000" pointer-events="all" style="fill: rgb(255, 255, 255); stroke: rgb(0, 0, 0);"/></g></g><g data-cell-id="7TzrphOt-DHHnTkeYhhr-4"><g><rect x="910" y="700" width="220" height="20" fill="#ffffff" stroke="#000000" pointer-events="all" style="fill: rgb(255, 255, 255); stroke: rgb(0, 0, 0);"/></g></g><g data-cell-id="7TzrphOt-DHHnTkeYhhr-5"><g><rect x="660" y="700" width="30" height="20" fill="#ffffff" stroke="#000000" pointer-events="all" style="fill: rgb(255, 255, 255); stroke: rgb(0, 0, 0);"/></g></g></g><g data-cell-id="7TzrphOt-DHHnTkeYhhr-7"><g/><g data-cell-id="7TzrphOt-DHHnTkeYhhr-8"><g><rect x="690" y="720" width="220" height="20" fill="#ffffff" stroke="#000000" pointer-events="all" style="fill: rgb(255, 255, 255); stroke: rgb(0, 0, 0);"/></g></g><g data-cell-id="7TzrphOt-DHHnTkeYhhr-9"><g><rect x="910" y="720" width="220" height="20" fill="#ffffff" stroke="#000000" pointer-events="all" style="fill: rgb(255, 255, 255); stroke: rgb(0, 0, 0);"/></g></g><g data-cell-id="7TzrphOt-DHHnTkeYhhr-10"><g><rect x="660" y="720" width="30" height="20" fill="#ffffff" stroke="#000000" pointer-events="all" style="fill: rgb(255, 255, 255); stroke: rgb(0, 0, 0);"/></g></g></g><g data-cell-id="7TzrphOt-DHHnTkeYhhr-11"><g/><g data-cell-id="7TzrphOt-DHHnTkeYhhr-12"><g><rect x="690" y="740" width="220" height="20" fill="#ffffff" stroke="#000000" pointer-events="all" style="fill: rgb(255, 255, 255); stroke: rgb(0, 0, 0);"/></g></g><g data-cell-id="7TzrphOt-DHHnTkeYhhr-13"><g><rect x="910" y="740" width="220" height="20" fill="#ffffff" stroke="#000000" pointer-events="all" style="fill: rgb(255, 255, 255); stroke: rgb(0, 0, 0);"/></g></g><g data-cell-id="7TzrphOt-DHHnTkeYhhr-14"><g><rect x="660" y="740" width="30" height="20" fill="#ffffff" stroke="#000000" pointer-events="all" style="fill: rgb(255, 255, 255); stroke: rgb(0, 0, 0);"/></g></g></g><g data-cell-id="7TzrphOt-DHHnTkeYhhr-15"><g/><g data-cell-id="7TzrphOt-DHHnTkeYhhr-16"><g><rect x="690" y="760" width="220" height="20" fill="#ffffff" stroke="#000000" pointer-events="all" style="fill: rgb(255, 255, 255); stroke: rgb(0, 0, 0);"/></g></g><g data-cell-id="7TzrphOt-DHHnTkeYhhr-17"><g><rect x="910" y="760" width="220" height="20" fill="#ffffff" stroke="#000000" pointer-events="all" style="fill: rgb(255, 255, 255); stroke: rgb(0, 0, 0);"/></g></g><g data-cell-id="7TzrphOt-DHHnTkeYhhr-18"><g><rect x="660" y="760" width="30" height="20" fill="#ffffff" stroke="#000000" pointer-events="all" style="fill: rgb(255, 255, 255); stroke: rgb(0, 0, 0);"/></g></g></g></g><g data-cell-id="Np6NXg_4izOHI7aook8U-31"><g><rect x="56.58" y="130" width="204.17" height="64.51" rx="9.68" ry="9.68" fill="#f5f5f5" stroke="#666666" pointer-events="all" style="fill: rgb(245, 245, 245); stroke: rgb(102, 102, 102);"/></g></g><g data-cell-id="Np6NXg_4izOHI7aook8U-32"><g><rect x="42" y="130" width="233.33" height="28.67" rx="4.3" ry="4.3" fill="#ffffff" stroke="#b85450" stroke-width="2" pointer-events="all" style="fill: rgb(255, 255, 255); stroke: rgb(184, 84, 80);"/></g><g><g fill="#000000" font-family="&quot;Helvetica&quot;" font-size="12px" style="fill: rgb(0, 0, 0);"><text x="51.5" y="148.84">{{ round1_position1_athlete1 }}</text></g></g></g><g data-cell-id="Np6NXg_4izOHI7aook8U-33"><g><rect x="42" y="165.84" width="233.33" height="28.67" rx="4.3" ry="4.3" fill="#ffffff" stroke="#6c8ebf" stroke-width="2" pointer-events="all" style="fill: rgb(255, 255, 255); stroke: rgb(108, 142, 191);"/></g><g><g fill="#000000" font-family="&quot;Helvetica&quot;" font-size="12px" style="fill: rgb(0, 0, 0);"><text x="51.5" y="184.68">{{ round1_position1_athlete2 }}</text></g></g></g><g data-cell-id="Np6NXg_4izOHI7aook8U-27"><g><rect x="56.58" y="216.02" width="204.17" height="64.51" rx="9.68" ry="9.68" fill="#f5f5f5" stroke="#666666" pointer-events="all" style="fill: rgb(245, 245, 245); stroke: rgb(102, 102, 102);"/></g></g><g data-cell-id="Np6NXg_4izOHI7aook8U-12"><g><rect x="42" y="216.02" width="233.33" height="28.67" rx="4.3" ry="4.3" fill="#ffffff" stroke="#b85450" stroke-width="2" pointer-events="all" style="fill: rgb(255, 255, 255); stroke: rgb(184, 84, 80);"/></g><g><g fill="#000000" font-family="&quot;Helvetica&quot;" font-size="12px" style="fill: rgb(0, 0, 0);"><text x="51.5" y="234.86">{{ round1_position2_athlete1 }}</text></g></g></g><g data-cell-id="Np6NXg_4izOHI7aook8U-13"><g><rect x="42" y="251.86" width="233.33" height="28.67" rx="4.3" ry="4.3" fill="#ffffff" stroke="#6c8ebf" stroke-width="2" pointer-events="all" style="fill: rgb(255, 255, 255); stroke: rgb(108, 142, 191);"/></g><g><g fill="#000000" font-family="&quot;Helvetica&quot;" font-size="12px" style="fill: rgb(0, 0, 0);"><text x="51.5" y="270.7">{{ round1_position2_athlete2 }}</text></g></g></g><g data-cell-id="Np6NXg_4izOHI7aook8U-54"><g><rect x="56.58" y="302.04" width="204.17" height="64.51" rx="9.68" ry="9.68" fill="#f5f5f5" stroke="#666666" pointer-events="all" style="fill: rgb(245, 245, 245); stroke: rgb(102, 102, 102);"/></g></g><g data-cell-id="Np6NXg_4izOHI7aook8U-55"><g><rect x="42" y="302.04" width="233.33" height="28.67" rx="4.3" ry="4.3" fill="#ffffff" stroke="#b85450" stroke-width="2" pointer-events="all" style="fill: rgb(255, 255, 255); stroke: rgb(184, 84, 80);"/></g><g><g fill="#000000" font-family="&quot;Helvetica&quot;" font-size="12px" style="fill: rgb(0, 0, 0);"><text x="51.5" y="320.88">{{ round1_position3_athlete1 }}</text></g></g></g><g data-cell-id="Np6NXg_4izOHI7aook8U-56"><g><rect x="42" y="337.88" width="233.33" height="28.67" rx="4.3" ry="4.3" fill="#ffffff" stroke="#6c8ebf" stroke-width="2" pointer-events="all" style="fill: rgb(255, 255, 255); stroke: rgb(108, 142, 191);"/></g><g><g fill="#000000" font-family="&quot;Helvetica&quot;" font-size="12px" style="fill: rgb(0, 0, 0);"><text x="51.5" y="356.72">{{ round1_position3_athlete2 }}</text></g></g></g><g data-cell-id="Np6NXg_4izOHI7aook8U-50"><g><rect x="56.58" y="388.06" width="204.17" height="64.51" rx="9.68" ry="9.68" fill="#f5f5f5" stroke="#666666" pointer-events="all" style="fill: rgb(245, 245, 245); stroke: rgb(102, 102, 102);"/></g></g><g data-cell-id="Np6NXg_4izOHI7aook8U-51"><g><rect x="42" y="388.06" width="233.33" height="28.67" rx="4.3" ry="4.3" fill="#ffffff" stroke="#b85450" stroke-width="2" pointer-events="all" style="fill: rgb(255, 255, 255); stroke: rgb(184, 84, 80);"/></g><g><g fill="#000000" font-family="&quot;Helvetica&quot;" font-size="12px" style="fill: rgb(0, 0, 0);"><text x="51.5" y="406.89">{{ round1_position4_athlete1 }}</text></g></g></g><g data-cell-id="Np6NXg_4izOHI7aook8U-52"><g><rect x="42" y="423.9" width="233.33" height="28.67" rx="4.3" ry="4.3" fill="#ffffff" stroke="#6c8ebf" stroke-width="2" pointer-events="all" style="fill: rgb(255, 255, 255); stroke: rgb(108, 142, 191);"/></g><g><g fill="#000000" font-family="&quot;Helvetica&quot;" font-size="12px" style="fill: rgb(0, 0, 0);"><text x="51.5" y="442.74">{{ round1_position4_athlete2 }}</text></g></g></g><g data-cell-id="cP9SBrHYOixEWWslTNj9-24"><g><rect x="56.58" y="474.08" width="204.17" height="64.51" rx="9.68" ry="9.68" fill="#f5f5f5" stroke="#666666" pointer-events="all" style="fill: rgb(245, 245, 245); stroke: rgb(102, 102, 102);"/></g></g><g data-cell-id="cP9SBrHYOixEWWslTNj9-25"><g><rect x="42" y="474.08" width="233.33" height="28.67" rx="4.3" ry="4.3" fill="#ffffff" stroke="#b85450" stroke-width="2" pointer-events="all" style="fill: rgb(255, 255, 255); stroke: rgb(184, 84, 80);"/></g><g><g fill="#000000" font-family="&quot;Helvetica&quot;" font-size="12px" style="fill: rgb(0, 0, 0);"><text x="51.5" y="492.91">{{ round1_position5_athlete1 }}</text></g></g></g><g data-cell-id="cP9SBrHYOixEWWslTNj9-26"><g><rect x="42" y="509.92" width="233.33" height="28.67" rx="4.3" ry="4.3" fill="#ffffff" stroke="#6c8ebf" stroke-width="2" pointer-events="all" style="fill: rgb(255, 255, 255); stroke: rgb(108, 142, 191);"/></g><g><g fill="#000000" font-family="&quot;Helvetica&quot;" font-size="12px" style="fill: rgb(0, 0, 0);"><text x="51.5" y="528.76">{{ round1_position5_athlete2 }}</text></g></g></g><g data-cell-id="cP9SBrHYOixEWWslTNj9-20"><g><rect x="56.58" y="560.1" width="204.17" height="64.51" rx="9.68" ry="9.68" fill="#f5f5f5" stroke="#666666" pointer-events="all" style="fill: rgb(245, 245, 245); stroke: rgb(102, 102, 102);"/></g></g><g data-cell-id="cP9SBrHYOixEWWslTNj9-21"><g><rect x="42" y="560.1" width="233.33" height="28.67" rx="4.3" ry="4.3" fill="#ffffff" stroke="#b85450" stroke-width="2" pointer-events="all" style="fill: rgb(255, 255, 255); stroke: rgb(184, 84, 80);"/></g><g><g fill="#000000" font-family="&quot;Helvetica&quot;" font-size="12px" style="fill: rgb(0, 0, 0);"><text x="51.5" y="578.93">{{ round1_position6_athlete1 }}</text></g></g></g><g data-cell-id="cP9SBrHYOixEWWslTNj9-22"><g><rect x="42" y="595.94" width="233.33" height="28.67" rx="4.3" ry="4.3" fill="#ffffff" stroke="#6c8ebf" stroke-width="2" pointer-events="all" style="fill: rgb(255, 255, 255); stroke: rgb(108, 142, 191);"/></g><g><g fill="#000000" font-family="&quot;Helvetica&quot;" font-size="12px" style="fill: rgb(0, 0, 0);"><text x="51.5" y="614.77">{{ round1_position6_athlete2 }}</text></g></g></g><g data-cell-id="cP9SBrHYOixEWWslTNj9-32"><g><rect x="56.58" y="646.12" width="204.17" height="64.51" rx="9.68" ry="9.68" fill="#f5f5f5" stroke="#666666" pointer-events="all" style="fill: rgb(245, 245, 245); stroke: rgb(102, 102, 102);"/></g></g><g data-cell-id="cP9SBrHYOixEWWslTNj9-33"><g><rect x="42" y="646.12" width="233.33" height="28.67" rx="4.3" ry="4.3" fill="#ffffff" stroke="#b85450" stroke-width="2" pointer-events="all" style="fill: rgb(255, 255, 255); stroke: rgb(184, 84, 80);"/></g><g><g fill="#000000" font-family="&quot;Helvetica&quot;" font-size="12px" style="fill: rgb(0, 0, 0);"><text x="51.5" y="664.95">{{ round1_position7_athlete1 }}</text></g></g></g><g data-cell-id="cP9SBrHYOixEWWslTNj9-34"><g><rect x="42" y="681.96" width="233.33" height="28.67" rx="4.3" ry="4.3" fill="#ffffff" stroke="#6c8ebf" stroke-width="2" pointer-events="all" style="fill: rgb(255, 255, 255); stroke: rgb(108, 142, 191);"/></g><g><g fill="#000000" font-family="&quot;Helvetica&quot;" font-size="12px" style="fill: rgb(0, 0, 0);"><text x="51.5" y="700.79">{{ round1_position7_athlete2 }}</text></g></g></g><g data-cell-id="cP9SBrHYOixEWWslTNj9-28"><g><rect x="56.58" y="732.14" width="204.17" height="64.51" rx="9.68" ry="9.68" fill="#f5f5f5" stroke="#666666" pointer-events="all" style="fill: rgb(245, 245, 245); stroke: rgb(102, 102, 102);"/></g></g><g data-cell-id="cP9SBrHYOixEWWslTNj9-29"><g><rect x="42" y="732.14" width="233.33" height="28.67" rx="4.3" ry="4.3" fill="#ffffff" stroke="#b85450" stroke-width="2" pointer-events="all" style="fill: rgb(255, 255, 255); stroke: rgb(184, 84, 80);"/></g><g><g fill="#000000" font-family="&quot;Helvetica&quot;" font-size="12px" style="fill: rgb(0, 0, 0);"><text x="51.5" y="750.97">{{ round1_position8_athlete1 }}</text></g></g></g><g data-cell-id="cP9SBrHYOixEWWslTNj9-30"><g><rect x="42" y="767.98" width="233.33" height="28.67" rx="4.3" ry="4.3" fill="#ffffff" stroke="#6c8ebf" stroke-width="2" pointer-events="all" style="fill: rgb(255, 255, 255); stroke: rgb(108, 142, 191);"/></g><g><g fill="#000000" font-family="&quot;Helvetica&quot;" font-size="12px" style="fill: rgb(0, 0, 0);"><text x="51.5" y="786.81">{{ round1_position8_athlete2 }}</text></g></g></g><g data-cell-id="cP9SBrHYOixEWWslTNj9-8"><g><rect x="340.47" y="689.13" width="204.17" height="64.51" rx="9.68" ry="9.68" fill="#f5f5f5" stroke="#666666" pointer-events="all" style="fill: rgb(245, 245, 245); stroke: rgb(102, 102, 102);"/></g></g><g data-cell-id="cP9SBrHYOixEWWslTNj9-9"><g><rect x="325.89" y="689.13" width="233.33" height="28.67" rx="4.3" ry="4.3" fill="#ffffff" stroke="#b85450" stroke-width="2" pointer-events="all" style="fill: rgb(255, 255, 255); stroke: rgb(184, 84, 80);"/></g><g><g fill="#000000" font-family="&quot;Helvetica&quot;" font-size="12px" style="fill: rgb(0, 0, 0);"><text x="335.39" y="707.96">{{ round2_position4_athlete1 }}</text></g></g></g><g data-cell-id="cP9SBrHYOixEWWslTNj9-10"><g><rect x="325.89" y="724.97" width="233.33" height="28.67" rx="4.3" ry="4.3" fill="#ffffff" stroke="#6c8ebf" stroke-width="2" pointer-events="all" style="fill: rgb(255, 255, 255); stroke: rgb(108, 142, 191);"/></g><g><g fill="#000000" font-family="&quot;Helvetica&quot;" font-size="12px" style="fill: rgb(0, 0, 0);"><text x="335.39" y="743.8">{{ round2_position4_athlete2 }}</text></g></g></g><g data-cell-id="cP9SBrHYOixEWWslTNj9-2"><g><rect x="340.47" y="517.09" width="204.17" height="64.51" rx="9.68" ry="9.68" fill="#f5f5f5" stroke="#666666" pointer-events="all" style="fill: rgb(245, 245, 245); stroke: rgb(102, 102, 102);"/></g></g><g data-cell-id="cP9SBrHYOixEWWslTNj9-3"><g><rect x="325.89" y="517.09" width="233.33" height="28.67" rx="4.3" ry="4.3" fill="#ffffff" stroke="#b85450" stroke-width="2" pointer-events="all" style="fill: rgb(255, 255, 255); stroke: rgb(184, 84, 80);"/></g><g><g fill="#000000" font-family="&quot;Helvetica&quot;" font-size="12px" style="fill: rgb(0, 0, 0);"><text x="335.39" y="535.92">{{ round2_position3_athlete1 }}</text></g></g></g><g data-cell-id="cP9SBrHYOixEWWslTNj9-4"><g><rect x="325.89" y="552.93" width="233.33" height="28.67" rx="4.3" ry="4.3" fill="#ffffff" stroke="#6c8ebf" stroke-width="2" pointer-events="all" style="fill: rgb(255, 255, 255); stroke: rgb(108, 142, 191);"/></g><g><g fill="#000000" font-family="&quot;Helvetica&quot;" font-size="12px" style="fill: rgb(0, 0, 0);"><text x="335.39" y="571.77">{{ round2_position3_athlete2 }}</text></g></g></g><g data-cell-id="Np6NXg_4izOHI7aook8U-46"><g><rect x="340.47" y="345.05" width="204.17" height="64.51" rx="9.68" ry="9.68" fill="#f5f5f5" stroke="#666666" pointer-events="all" style="fill: rgb(245, 245, 245); stroke: rgb(102, 102, 102);"/></g></g><g data-cell-id="Np6NXg_4izOHI7aook8U-47"><g><rect x="325.89" y="345.05" width="233.33" height="28.67" rx="4.3" ry="4.3" fill="#ffffff" stroke="#b85450" stroke-width="2" pointer-events="all" style="fill: rgb(255, 255, 255); stroke: rgb(184, 84, 80);"/></g><g><g fill="#000000" font-family="&quot;Helvetica&quot;" font-size="12px" style="fill: rgb(0, 0, 0);"><text x="335.39" y="363.88">{{ round2_position2_athlete1 }}</text></g></g></g><g data-cell-id="Np6NXg_4izOHI7aook8U-48"><g><rect x="325.89" y="380.89" width="233.33" height="28.67" rx="4.3" ry="4.3" fill="#ffffff" stroke="#6c8ebf" stroke-width="2" pointer-events="all" style="fill: rgb(255, 255, 255); stroke: rgb(108, 142, 191);"/></g><g><g fill="#000000" font-family="&quot;Helvetica&quot;" font-size="12px" style="fill: rgb(0, 0, 0);"><text x="335.39" y="399.73">{{ round2_position2_athlete2 }}</text></g></g></g><g data-cell-id="Np6NXg_4izOHI7aook8U-35"><g><rect x="340.47" y="173.01" width="204.17" height="64.51" rx="9.68" ry="9.68" fill="#f5f5f5" stroke="#666666" pointer-events="all" style="fill: rgb(245, 245, 245); stroke: rgb(102, 102, 102);"/></g></g><g data-cell-id="Np6NXg_4izOHI7aook8U-36"><g><rect x="325.89" y="173.01" width="233.33" height="28.67" rx="4.3" ry="4.3" fill="#ffffff" stroke="#b85450" stroke-width="2" pointer-events="all" style="fill: rgb(255, 255, 255); stroke: rgb(184, 84, 80);"/></g><g><g fill="#000000" font-family="&quot;Helvetica&quot;" font-size="12px" style="fill: rgb(0, 0, 0);"><text x="335.39" y="191.85">{{ round2_position1_athlete1 }}</text></g></g></g><g data-cell-id="Np6NXg_4izOHI7aook8U-37"><g><rect x="325.89" y="208.85" width="233.33" height="28.67" rx="4.3" ry="4.3" fill="#ffffff" stroke="#6c8ebf" stroke-width="2" pointer-events="all" style="fill: rgb(255, 255, 255); stroke: rgb(108, 142, 191);"/></g><g><g fill="#000000" font-family="&quot;Helvetica&quot;" font-size="12px" style="fill: rgb(0, 0, 0);"><text x="335.39" y="227.69">{{ round2_position1_athlete2 }}</text></g></g></g><g data-cell-id="Np6NXg_4izOHI7aook8U-60"><g><rect x="624.36" y="258.67" width="204.17" height="64.51" rx="9.68" ry="9.68" fill="#f5f5f5" stroke="#666666" pointer-events="all" style="fill: rgb(245, 245, 245); stroke: rgb(102, 102, 102);"/></g></g><g data-cell-id="Np6NXg_4izOHI7aook8U-61"><g><rect x="609.78" y="258.67" width="233.33" height="28.67" rx="4.3" ry="4.3" fill="#ffffff" stroke="#b85450" stroke-width="2" pointer-events="all" style="fill: rgb(255, 255, 255); stroke: rgb(184, 84, 80);"/></g><g><g fill="#000000" font-family="&quot;Helvetica&quot;" font-size="12px" style="fill: rgb(0, 0, 0);"><text x="619.28" y="277.51">{{ round3_position1_athlete1 }}</text></g></g></g><g data-cell-id="Np6NXg_4izOHI7aook8U-62"><g><rect x="609.78" y="294.51" width="233.33" height="28.67" rx="4.3" ry="4.3" fill="#ffffff" stroke="#6c8ebf" stroke-width="2" pointer-events="all" style="fill: rgb(255, 255, 255); stroke: rgb(108, 142, 191);"/></g><g><g fill="#000000" font-family="&quot;Helvetica&quot;" font-size="12px" style="fill: rgb(0, 0, 0);"><text x="619.28" y="313.35">{{ round3_position1_athlete2 }}</text></g></g></g><g data-cell-id="cP9SBrHYOixEWWslTNj9-14"><g><rect x="624.36" y="602.75" width="204.17" height="64.51" rx="9.68" ry="9.68" fill="#f5f5f5" stroke="#666666" pointer-events="all" style="fill: rgb(245, 245, 245); stroke: rgb(102, 102, 102);"/></g></g><g data-cell-id="cP9SBrHYOixEWWslTNj9-15"><g><rect x="609.78" y="602.75" width="233.33" height="28.67" rx="4.3" ry="4.3" fill="#ffffff" stroke="#b85450" stroke-width="2" pointer-events="all" style="fill: rgb(255, 255, 255); stroke: rgb(184, 84, 80);"/></g><g><g fill="#000000" font-family="&quot;Helvetica&quot;" font-size="12px" style="fill: rgb(0, 0, 0);"><text x="619.28" y="621.58">{{ round3_position2_athlete1 }}</text></g></g></g><g data-cell-id="cP9SBrHYOixEWWslTNj9-16"><g><rect x="609.78" y="638.59" width="233.33" height="28.67" rx="4.3" ry="4.3" fill="#ffffff" stroke="#6c8ebf" stroke-width="2" pointer-events="all" style="fill: rgb(255, 255, 255); stroke: rgb(108, 142, 191);"/></g><g><g fill="#000000" font-family="&quot;Helvetica&quot;" font-size="12px" style="fill: rgb(0, 0, 0);"><text x="619.28" y="657.43">{{ round3_position2_athlete2 }}</text></g></g></g><g data-cell-id="cP9SBrHYOixEWWslTNj9-36"><g><rect x="908.25" y="431.78" width="204.17" height="64.51" rx="9.68" ry="9.68" fill="#f5f5f5" stroke="#666666" pointer-events="all" style="fill: rgb(245, 245, 245); stroke: rgb(102, 102, 102);"/></g></g><g data-cell-id="cP9SBrHYOixEWWslTNj9-37"><g><rect x="893.67" y="431.78" width="233.33" height="28.67" rx="4.3" ry="4.3" fill="#ffffff" stroke="#b85450" stroke-width="2" pointer-events="all" style="fill: rgb(255, 255, 255); stroke: rgb(184, 84, 80);"/></g><g><g fill="#000000" font-family="&quot;Helvetica&quot;" font-size="12px" style="fill: rgb(0, 0, 0);"><text x="903.17" y="450.62">{{ round4_position1_athlete1 }}</text></g></g></g><g data-cell-id="cP9SBrHYOixEWWslTNj9-38"><g><rect x="893.67" y="467.63" width="233.33" height="28.67" rx="4.3" ry="4.3" fill="#ffffff" stroke="#6c8ebf" stroke-width="2" pointer-events="all" style="fill: rgb(255, 255, 255); stroke: rgb(108, 142, 191);"/></g><g><g fill="#000000" font-family="&quot;Helvetica&quot;" font-size="12px" style="fill: rgb(0, 0, 0);"><text x="903.17" y="486.46">{{ round4_position1_athlete2 }}</text></g></g></g><g data-cell-id="e0rBFvXUbBW8OrnMEbpp-1"><g><rect x="42" y="100" width="233.33" height="20" fill="none" stroke="none" pointer-events="all"/></g><g><g fill="#000000" font-family="&quot;Helvetica&quot;" text-anchor="middle" font-size="12px" style="fill: rgb(0, 0, 0);"><text x="158.17" y="114.5">{{ type_round1 }}</text></g></g></g><g data-cell-id="e0rBFvXUbBW8OrnMEbpp-2"><g><rect x="325.89" y="100" width="233.33" height="20" fill="none" stroke="none" pointer-events="all"/></g><g><g fill="#000000" font-family="&quot;Helvetica&quot;" text-anchor="middle" font-size="12px" style="fill: rgb(0, 0, 0);"><text x="442.06" y="114.5">{{ type_round2 }}</text></g></g></g><g data-cell-id="e0rBFvXUbBW8OrnMEbpp-3"><g><rect x="609.78" y="100" width="233.33" height="20" fill="none" stroke="none" pointer-events="all"/></g><g><g fill="#000000" font-family="&quot;Helvetica&quot;" text-anchor="middle" font-size="12px" style="fill: rgb(0, 0, 0);"><text x="725.95" y="114.5">{{ type_round3 }}</text></g></g></g><g data-cell-id="e0rBFvXUbBW8OrnMEbpp-4"><g><rect x="893.67" y="100" width="233.33" height="20" fill="none" stroke="none" pointer-events="all"/></g><g><g fill="#000000" font-family="&quot;Helvetica&quot;" text-anchor="middle" font-size="12px" style="fill: rgb(0, 0, 0);"><text x="1009.84" y="114.5">{{ type_round4 }}</text></g></g></g><g data-cell-id="XyOjNsg0Fh1r9KqNEPcC-1"><g><rect x="42" y="40" width="530" height="40" rx="6" ry="6" fill="#ffffff" stroke="#000000" pointer-events="all" style="fill: rgb(255, 255, 255); stroke: rgb(0, 0, 0);"/></g><g><g fill="#000000" font-family="&quot;Helvetica&quot;" text-anchor="middle" font-size="18px" style="fill: rgb(0, 0, 0);"><text x="306.5" y="67.5">{{ tournament_name }}</text></g></g></g><g data-cell-id="Rg9lX1wxrvw6oNObsjyB-1"><g><g><svg width="197.15" height="212.06" viewBox="18.236122131347656 -8.741553756408393e-7 475.5277099609375 512.0000610351562" version="1.1" id="svg1" xmlns="http://www.w3.org/2000/svg" x="623.86" y="357.51" style="font-family: initial;">&#xa;  <defs id="defs1">&#xa;    <clipPath clipPathUnits="userSpaceOnUse" id="clipPath66">&#xa;      <path d="M 0,595.276 H 841.89 V 0 H 0 Z" transform="translate(-140.4205,-92.595702)" id="path66"/>&#xa;    </clipPath>&#xa;    <clipPath clipPathUnits="userSpaceOnUse" id="clipPath68">&#xa;      <path d="M 0,595.276 H 841.89 V 0 H 0 Z" transform="translate(-98.891305,-105.55561)" id="path68"/>&#xa;    </clipPath>&#xa;  </defs>&#xa;  <g id="layer1">&#xa;    <path id="path65" d="m 0,0 c -2.337,-18.719 -22.869,-27.107 -22.869,-27.107 -10.183,3.604 -21.686,15.592 -22.657,27.158 -0.968,11.569 2.222,18.487 2.222,18.487 23.372,8.683 40.972,0 40.972,0 C 0.833,12.301 0,0 0,0 m 0.515,21.425 -0.679,0.335 c -0.357,0.177 -8.894,4.314 -22.1,4.314 -7.719,0 -15.456,-1.42 -22.994,-4.221 l -0.88,-0.327 -0.393,-0.852 c -0.148,-0.321 -3.612,-8.001 -2.547,-20.673 1.117,-13.349 14.062,-26.628 25.451,-30.655 l 0.817,-0.289 0.801,0.328 c 0.936,0.382 22.957,9.604 25.559,30.468 l 0.012,0.129 C 3.6,0.538 4.442,13.681 0.858,20.749 Z" style="fill:#fff200;fill-opacity:1;fill-rule:nonzero;stroke:none;stroke-width:1.00002;stroke-dasharray:none" transform="matrix(8.979778,0,0,-8.979778,460.76908,234.13873)" clip-path="url(#clipPath66)"/>&#xa;    <path id="path67" d="m 0,0 c 0,0 -1.014,-3.165 -0.917,-3.186 0.097,-0.017 1.585,-2.4 3.089,-3.068 L 12.723,-3.127 1.665,-8.616 c 0,0 -0.178,-4.572 0.41,-6.021 0,0 3.807,-1.522 5.764,-1.581 l 8.852,10.826 -6.664,-19.678 c 0,0 4.729,-5.025 8.794,-7.366 0,0 5.823,3.672 8.89,7.366 l -6.68,19.687 8.823,-10.835 c 0,0 4.935,0.858 5.81,1.572 0,0 0.604,2.358 0.494,5.945 l -11.235,5.566 10.741,-3.043 c 0,0 1.644,0.934 2.988,2.988 0,0 -0.165,1.508 -0.85,2.712 0,0 -16.64,4.404 -37.802,0.478" style="fill:#fff200;fill-opacity:1;fill-rule:nonzero;stroke:none;stroke-width:1.00002;stroke-dasharray:none" transform="matrix(8.979778,0,0,-8.979778,86.603405,117.68016)" clip-path="url(#clipPath68)"/>&#xa;  </g>&#xa;</svg></g></g></g></g></g></g></svg>