<svg width="123" height="19" viewBox="0 0 123 19" fill="none" xmlns="http://www.w3.org/2000/svg">
<mask id="mask0_2_7" style="mask-type:luminance" maskUnits="userSpaceOnUse" x="0" y="0" width="123" height="19">
<path d="M0 0.0894623H122.21V18.3095H0V0.0894623Z" fill="white"/>
</mask>
<g mask="url(#mask0_2_7)">
<path d="M45.2873 17.2131L49.23 17.2345C49.4447 16.8518 50.3967 11.4571 50.6313 10.2051L50.7833 9.44781C50.87 9.22514 50.838 9.29581 50.9407 9.19448L52.2847 13.5798L55.3433 13.6051C55.8687 12.8331 56.3847 11.9625 56.8847 11.2091C57.2913 10.5945 58.0887 9.17048 58.4647 8.80648L57.0607 17.2065L61.066 17.2251L63.7793 1.32514L59.662 1.31048C59.1527 2.23048 56.7527 5.64381 55.91 6.81848C55.5753 7.28514 54.9767 8.35714 54.562 8.62781C54.2993 8.19714 53.5953 5.49981 53.438 4.98914C53.0513 3.73181 52.7247 2.40914 52.2927 1.31581L48.0113 1.30648L45.2873 17.2131ZM103.591 2.00781C104.334 4.14514 104.59 6.55581 104.127 8.97181C103.709 11.1518 102.602 12.8145 101.359 14.1451C100.925 14.6118 97.678 17.4451 96.6246 17.3465C95.722 17.2625 92.77 14.9505 91.9527 14.0465C89.722 11.5785 88.7007 8.64381 89.1113 5.11848C89.194 4.39848 89.4647 2.23314 89.974 1.96381C92.3087 0.731811 97.4313 0.605144 100.447 1.14248C101.673 1.36114 102.459 1.68914 103.591 2.00781ZM88.27 7.88381C88.7487 12.8651 92.2073 16.0731 95.842 17.9065C96.8833 18.4305 96.8393 18.3851 98.862 17.1758C104.297 13.9238 106.418 8.48381 104.53 2.16114C104.263 1.26914 104.267 1.39848 103.39 1.10248C99.1353 -0.338856 94.3247 -0.374855 90.1767 1.04114C89.3847 1.31181 89.1727 1.20381 88.922 2.00114C88.346 3.83181 88.0833 5.94781 88.27 7.88381ZM82.7113 17.2051C83.09 14.6025 83.6367 12.0491 84.0633 9.41314C84.2807 8.06248 85.3847 2.35048 85.3687 1.51981L81.442 1.56514L78.7353 17.2185L82.7113 17.2051ZM95.73 4.66514C95.5753 5.02248 94.882 5.21848 94.5233 5.39714L90.6806 7.27981C90.5993 7.99981 90.7087 8.49181 90.766 9.18648C93.0567 9.81714 92.186 10.1131 94.382 7.46914C94.7193 7.06381 95.8887 5.45048 96.2833 5.39714C96.2927 5.93448 94.09 11.9331 93.7687 13.0145C94.1007 13.6278 96.0473 15.2398 96.7087 15.4811C97.5567 15.1051 99.0687 13.7251 99.6087 13.1145C99.55 12.1971 97.082 6.13714 97.1287 5.39181C97.6513 5.46914 100.014 8.96514 100.833 9.63048L102.63 9.20248L102.786 7.38514C101.973 6.62914 97.99 5.27448 97.6353 4.66514C98.0847 4.41181 101.923 5.96781 102.845 5.95981C103.543 5.35448 103.849 5.23448 103.295 4.11848C101.445 3.88781 99.8246 3.56514 97.918 3.45981C95.4473 3.32381 93.1433 3.56114 90.7993 3.88914C90.166 3.97714 90.1353 3.91981 89.9233 4.51981C89.734 5.05181 89.7807 5.20248 90.0887 5.54914C90.7633 6.31048 91.5006 5.77581 93.4206 5.20514L95.138 4.69848C95.166 4.68914 95.4366 4.62248 95.4393 4.62248L95.73 4.66514ZM69.9473 9.08648C69.918 8.40648 70.418 5.55848 70.6007 4.80914C72.7447 4.68914 74.4847 4.44781 73.9113 7.10648C73.4713 9.14114 72.0767 9.17314 69.9473 9.08648ZM64.4167 17.1998L68.342 17.2358L69.2713 12.5385C71.1833 12.3771 73.694 12.8185 75.7407 11.2611C77.606 9.84248 77.778 8.58248 78.1713 5.84781C78.578 3.02781 77.4607 1.65048 74.8927 1.41314C72.83 1.22381 69.3393 1.28114 67.2087 1.41581L64.4167 17.1998ZM8.44733 11.7638C8.06733 12.5531 7.89666 13.2971 7.14199 13.7731C6.44466 14.2131 5.24866 14.3438 4.63799 13.7451C3.70466 12.8278 4.44866 9.53048 4.73133 8.25581C5.10333 6.56514 5.48599 4.50248 7.58333 4.57848C8.49533 4.61181 9.09799 5.30248 9.17266 6.18381C9.28199 7.45448 8.70199 7.99048 8.60999 8.79981L12.5153 8.74648C14.618 4.23714 13.138 1.07981 7.78599 1.21581C2.71666 1.34648 1.58466 3.90114 0.747328 8.27448C0.435328 9.90381 -0.234007 12.8745 0.0833267 14.5758C0.863327 18.7558 8.02066 17.8211 9.96599 16.3025C11.234 15.3118 12.2607 13.4491 12.27 11.7171L8.44733 11.7638ZM38.55 10.7771L38.0647 10.8065L37.562 10.8011L37.0593 10.7998L35.7487 10.7878L37.4553 5.28781L38.7567 5.27181L38.55 10.7771ZM34.846 13.8051L38.4087 13.7931L38.3647 17.2371L42.546 17.2318L42.4553 1.45581C41.6007 1.22381 36.5447 1.42914 35.2487 1.42914C34.922 1.51848 33.906 4.81848 33.7113 5.34114L29.538 17.2278L33.7207 17.1958L34.846 13.8051ZM22.746 17.2291C23.7273 17.2451 24.71 17.1985 25.694 17.2025C27.106 17.2078 26.75 17.1611 26.9847 15.7251C27.274 13.9545 29.4713 1.97981 29.446 1.37981L25.49 1.37314L24.2833 8.02381L20.1287 7.99981C20.094 7.23448 20.4767 5.47981 20.6327 4.62381C20.7527 3.96781 21.1873 1.98381 21.1367 1.38648C16.2967 1.21448 17.3073 1.03581 16.8433 3.47048L15.8047 9.37448C15.5873 10.6305 14.466 16.5278 14.45 17.2091C15.09 17.2718 15.882 17.2185 16.5393 17.2105C16.874 17.2065 17.2127 17.1998 17.5473 17.2011C18.2353 17.2038 18.2207 17.2558 18.3993 17.0785C18.6273 16.8451 19.294 12.3091 19.4167 11.5638C19.942 11.3931 22.9607 11.4665 23.6927 11.5118L22.746 17.2291ZM122.213 1.37448L118.265 1.39714L116.771 9.12914L114.174 1.39181L110.057 1.43048C109.882 1.12114 107.291 16.5571 107.257 17.2398L111.234 17.1878L112.789 9.00514L115.418 17.2305L119.505 17.1971L122.213 1.37448Z" fill="#FFF200"/>
</g>
</svg>
