<svg xmlns="http://www.w3.org/2000/svg" id="svg1" version="1.1" viewBox="18.236122131347656 -8.741553756408393e-7 475.5277099609375 512.0000610351562" height="512.0000610351562" width="475.5277099609375">&#xa;  <defs id="defs1">&#xa;    <clipPath id="clipPath66" clipPathUnits="userSpaceOnUse">&#xa;      <path id="path66" transform="translate(-140.4205,-92.595702)" d="M 0,595.276 H 841.89 V 0 H 0 Z"/>&#xa;    </clipPath>&#xa;    <clipPath id="clipPath68" clipPathUnits="userSpaceOnUse">&#xa;      <path id="path68" transform="translate(-98.891305,-105.55561)" d="M 0,595.276 H 841.89 V 0 H 0 Z"/>&#xa;    </clipPath>&#xa;  </defs>&#xa;  <g id="layer1">&#xa;    <path clip-path="url(#clipPath66)" transform="matrix(8.979778,0,0,-8.979778,460.76908,234.13873)" style="fill:#fff200;fill-opacity:1;fill-rule:nonzero;stroke:none;stroke-width:1.00002;stroke-dasharray:none" d="m 0,0 c -2.337,-18.719 -22.869,-27.107 -22.869,-27.107 -10.183,3.604 -21.686,15.592 -22.657,27.158 -0.968,11.569 2.222,18.487 2.222,18.487 23.372,8.683 40.972,0 40.972,0 C 0.833,12.301 0,0 0,0 m 0.515,21.425 -0.679,0.335 c -0.357,0.177 -8.894,4.314 -22.1,4.314 -7.719,0 -15.456,-1.42 -22.994,-4.221 l -0.88,-0.327 -0.393,-0.852 c -0.148,-0.321 -3.612,-8.001 -2.547,-20.673 1.117,-13.349 14.062,-26.628 25.451,-30.655 l 0.817,-0.289 0.801,0.328 c 0.936,0.382 22.957,9.604 25.559,30.468 l 0.012,0.129 C 3.6,0.538 4.442,13.681 0.858,20.749 Z" id="path65"/>&#xa;    <path clip-path="url(#clipPath68)" transform="matrix(8.979778,0,0,-8.979778,86.603405,117.68016)" style="fill:#fff200;fill-opacity:1;fill-rule:nonzero;stroke:none;stroke-width:1.00002;stroke-dasharray:none" d="m 0,0 c 0,0 -1.014,-3.165 -0.917,-3.186 0.097,-0.017 1.585,-2.4 3.089,-3.068 L 12.723,-3.127 1.665,-8.616 c 0,0 -0.178,-4.572 0.41,-6.021 0,0 3.807,-1.522 5.764,-1.581 l 8.852,10.826 -6.664,-19.678 c 0,0 4.729,-5.025 8.794,-7.366 0,0 5.823,3.672 8.89,7.366 l -6.68,19.687 8.823,-10.835 c 0,0 4.935,0.858 5.81,1.572 0,0 0.604,2.358 0.494,5.945 l -11.235,5.566 10.741,-3.043 c 0,0 1.644,0.934 2.988,2.988 0,0 -0.165,1.508 -0.85,2.712 0,0 -16.64,4.404 -37.802,0.478" id="path67"/>&#xa;  </g>&#xa;</svg>