<?xml version="1.0" encoding="UTF-8"?>
<!DOCTYPE svg PUBLIC "-//W3C//DTD SVG 1.1//EN" "http://www.w3.org/Graphics/SVG/1.1/DTD/svg11.dtd">
<svg xmlns="http://www.w3.org/2000/svg" style="background: #ffffff; background-color: #ffffff; color-scheme: light;" xmlns:xlink="http://www.w3.org/1999/xlink" version="1.1" width="1169px" height="827px" viewBox="0 0 1169 827"><defs/><rect fill="#ffffff" width="100%" height="100%" x="0" y="0" style="fill: rgb(255, 255, 255);"/><g><g data-cell-id="0"><g data-cell-id="1"><g data-cell-id="HG-E4ivHRSHQQWb7Lapx-2"><g><g><svg xmlns="http://www.w3.org/2000/svg" id="svg1" version="1.1" viewBox="18.236122131347656 -8.741553756408393e-7 475.5277099609375 512.0000610351562" height="212.06" width="197.15" x="486" y="120" style="font-family: initial;">&#xa;  <defs id="defs1">&#xa;    <clipPath id="clipPath66" clipPathUnits="userSpaceOnUse">&#xa;      <path id="path66" transform="translate(-140.4205,-92.595702)" d="M 0,595.276 H 841.89 V 0 H 0 Z"/>&#xa;    </clipPath>&#xa;    <clipPath id="clipPath68" clipPathUnits="userSpaceOnUse">&#xa;      <path id="path68" transform="translate(-98.891305,-105.55561)" d="M 0,595.276 H 841.89 V 0 H 0 Z"/>&#xa;    </clipPath>&#xa;  </defs>&#xa;  <g id="layer1">&#xa;    <path clip-path="url(#clipPath66)" transform="matrix(8.979778,0,0,-8.979778,460.76908,234.13873)" style="fill:#fff200;fill-opacity:1;fill-rule:nonzero;stroke:none;stroke-width:1.00002;stroke-dasharray:none" d="m 0,0 c -2.337,-18.719 -22.869,-27.107 -22.869,-27.107 -10.183,3.604 -21.686,15.592 -22.657,27.158 -0.968,11.569 2.222,18.487 2.222,18.487 23.372,8.683 40.972,0 40.972,0 C 0.833,12.301 0,0 0,0 m 0.515,21.425 -0.679,0.335 c -0.357,0.177 -8.894,4.314 -22.1,4.314 -7.719,0 -15.456,-1.42 -22.994,-4.221 l -0.88,-0.327 -0.393,-0.852 c -0.148,-0.321 -3.612,-8.001 -2.547,-20.673 1.117,-13.349 14.062,-26.628 25.451,-30.655 l 0.817,-0.289 0.801,0.328 c 0.936,0.382 22.957,9.604 25.559,30.468 l 0.012,0.129 C 3.6,0.538 4.442,13.681 0.858,20.749 Z" id="path65"/>&#xa;    <path clip-path="url(#clipPath68)" transform="matrix(8.979778,0,0,-8.979778,86.603405,117.68016)" style="fill:#fff200;fill-opacity:1;fill-rule:nonzero;stroke:none;stroke-width:1.00002;stroke-dasharray:none" d="m 0,0 c 0,0 -1.014,-3.165 -0.917,-3.186 0.097,-0.017 1.585,-2.4 3.089,-3.068 L 12.723,-3.127 1.665,-8.616 c 0,0 -0.178,-4.572 0.41,-6.021 0,0 3.807,-1.522 5.764,-1.581 l 8.852,10.826 -6.664,-19.678 c 0,0 4.729,-5.025 8.794,-7.366 0,0 5.823,3.672 8.89,7.366 l -6.68,19.687 8.823,-10.835 c 0,0 4.935,0.858 5.81,1.572 0,0 0.604,2.358 0.494,5.945 l -11.235,5.566 10.741,-3.043 c 0,0 1.644,0.934 2.988,2.988 0,0 -0.165,1.508 -0.85,2.712 0,0 -16.64,4.404 -37.802,0.478" id="path67"/>&#xa;  </g>&#xa;</svg></g></g></g><g data-cell-id="muOkb-H4uWtmL-af8cGg-2"><g transform="translate(0.5,0.5)"><rect x="597" y="40" width="530" height="40" rx="6" ry="6" fill="#ffffff" stroke="#000000" pointer-events="all" style="fill: rgb(255, 255, 255); stroke: rgb(0, 0, 0);"/></g><g><g fill="#000000" font-family="Helvetica" text-anchor="middle" font-size="18px" style="fill: rgb(0, 0, 0);"><text x="862" y="68">{{ category }}</text></g></g></g><g data-cell-id="muOkb-H4uWtmL-af8cGg-3"><g transform="translate(0.5,0.5)"><rect x="42" y="40" width="530" height="40" rx="6" ry="6" fill="#ffffff" stroke="#000000" pointer-events="all" style="fill: rgb(255, 255, 255); stroke: rgb(0, 0, 0);"/></g><g><g fill="#000000" font-family="Helvetica" text-anchor="middle" font-size="18px" style="fill: rgb(0, 0, 0);"><text x="307" y="68">{{ tournament_name }}</text></g></g></g><g data-cell-id="muOkb-H4uWtmL-af8cGg-23"><g transform="translate(0.5,0.5)"><rect x="750" y="10" width="410" height="20" fill="none" stroke="none" pointer-events="all"/></g><g><g fill="#000000" font-family="Helvetica" text-anchor="end" font-size="12px" style="fill: rgb(0, 0, 0);"><text x="1158" y="25">{{ start_time_tatami }}</text></g></g></g><g data-cell-id="muOkb-H4uWtmL-af8cGg-24"><g transform="translate(0.5,0.5)"/><g data-cell-id="muOkb-H4uWtmL-af8cGg-25"><g transform="translate(0.5,0.5)"/><g data-cell-id="muOkb-H4uWtmL-af8cGg-26"><g transform="translate(0.5,0.5)"><rect x="690" y="700" width="220" height="20" fill="#ffffff" stroke="#000000" pointer-events="all" style="fill: rgb(255, 255, 255); stroke: rgb(0, 0, 0);"/></g></g><g data-cell-id="muOkb-H4uWtmL-af8cGg-27"><g transform="translate(0.5,0.5)"><rect x="910" y="700" width="220" height="20" fill="#ffffff" stroke="#000000" pointer-events="all" style="fill: rgb(255, 255, 255); stroke: rgb(0, 0, 0);"/></g></g><g data-cell-id="muOkb-H4uWtmL-af8cGg-28"><g transform="translate(0.5,0.5)"><rect x="660" y="700" width="30" height="20" fill="#ffffff" stroke="#000000" pointer-events="all" style="fill: rgb(255, 255, 255); stroke: rgb(0, 0, 0);"/></g></g></g><g data-cell-id="muOkb-H4uWtmL-af8cGg-29"><g transform="translate(0.5,0.5)"/><g data-cell-id="muOkb-H4uWtmL-af8cGg-30"><g transform="translate(0.5,0.5)"><rect x="690" y="720" width="220" height="20" fill="#ffffff" stroke="#000000" pointer-events="all" style="fill: rgb(255, 255, 255); stroke: rgb(0, 0, 0);"/></g></g><g data-cell-id="muOkb-H4uWtmL-af8cGg-31"><g transform="translate(0.5,0.5)"><rect x="910" y="720" width="220" height="20" fill="#ffffff" stroke="#000000" pointer-events="all" style="fill: rgb(255, 255, 255); stroke: rgb(0, 0, 0);"/></g></g><g data-cell-id="muOkb-H4uWtmL-af8cGg-32"><g transform="translate(0.5,0.5)"><rect x="660" y="720" width="30" height="20" fill="#ffffff" stroke="#000000" pointer-events="all" style="fill: rgb(255, 255, 255); stroke: rgb(0, 0, 0);"/></g></g></g><g data-cell-id="muOkb-H4uWtmL-af8cGg-33"><g transform="translate(0.5,0.5)"/><g data-cell-id="muOkb-H4uWtmL-af8cGg-34"><g transform="translate(0.5,0.5)"><rect x="690" y="740" width="220" height="20" fill="#ffffff" stroke="#000000" pointer-events="all" style="fill: rgb(255, 255, 255); stroke: rgb(0, 0, 0);"/></g></g><g data-cell-id="muOkb-H4uWtmL-af8cGg-35"><g transform="translate(0.5,0.5)"><rect x="910" y="740" width="220" height="20" fill="#ffffff" stroke="#000000" pointer-events="all" style="fill: rgb(255, 255, 255); stroke: rgb(0, 0, 0);"/></g></g><g data-cell-id="muOkb-H4uWtmL-af8cGg-36"><g transform="translate(0.5,0.5)"><rect x="660" y="740" width="30" height="20" fill="#ffffff" stroke="#000000" pointer-events="all" style="fill: rgb(255, 255, 255); stroke: rgb(0, 0, 0);"/></g></g></g><g data-cell-id="muOkb-H4uWtmL-af8cGg-37"><g transform="translate(0.5,0.5)"/><g data-cell-id="muOkb-H4uWtmL-af8cGg-38"><g transform="translate(0.5,0.5)"><rect x="690" y="760" width="220" height="20" fill="#ffffff" stroke="#000000" pointer-events="all" style="fill: rgb(255, 255, 255); stroke: rgb(0, 0, 0);"/></g></g><g data-cell-id="muOkb-H4uWtmL-af8cGg-39"><g transform="translate(0.5,0.5)"><rect x="910" y="760" width="220" height="20" fill="#ffffff" stroke="#000000" pointer-events="all" style="fill: rgb(255, 255, 255); stroke: rgb(0, 0, 0);"/></g></g><g data-cell-id="muOkb-H4uWtmL-af8cGg-40"><g transform="translate(0.5,0.5)"><rect x="660" y="760" width="30" height="20" fill="#ffffff" stroke="#000000" pointer-events="all" style="fill: rgb(255, 255, 255); stroke: rgb(0, 0, 0);"/></g></g></g></g><g data-cell-id="muOkb-H4uWtmL-af8cGg-41"><g><g><svg xmlns="http://www.w3.org/2000/svg" id="svg1" version="1.1" viewBox="18.236122131347656 -8.741553756408393e-7 475.5277099609375 512.0000610351562" height="212.06" width="197.15" x="486" y="120" style="font-family: initial;">&#xa;  <defs id="defs1">&#xa;    <clipPath id="clipPath66" clipPathUnits="userSpaceOnUse">&#xa;      <path id="path66" transform="translate(-140.4205,-92.595702)" d="M 0,595.276 H 841.89 V 0 H 0 Z"/>&#xa;    </clipPath>&#xa;    <clipPath id="clipPath68" clipPathUnits="userSpaceOnUse">&#xa;      <path id="path68" transform="translate(-98.891305,-105.55561)" d="M 0,595.276 H 841.89 V 0 H 0 Z"/>&#xa;    </clipPath>&#xa;  </defs>&#xa;  <g id="layer1">&#xa;    <path clip-path="url(#clipPath66)" transform="matrix(8.979778,0,0,-8.979778,460.76908,234.13873)" style="fill:#fff200;fill-opacity:1;fill-rule:nonzero;stroke:none;stroke-width:1.00002;stroke-dasharray:none" d="m 0,0 c -2.337,-18.719 -22.869,-27.107 -22.869,-27.107 -10.183,3.604 -21.686,15.592 -22.657,27.158 -0.968,11.569 2.222,18.487 2.222,18.487 23.372,8.683 40.972,0 40.972,0 C 0.833,12.301 0,0 0,0 m 0.515,21.425 -0.679,0.335 c -0.357,0.177 -8.894,4.314 -22.1,4.314 -7.719,0 -15.456,-1.42 -22.994,-4.221 l -0.88,-0.327 -0.393,-0.852 c -0.148,-0.321 -3.612,-8.001 -2.547,-20.673 1.117,-13.349 14.062,-26.628 25.451,-30.655 l 0.817,-0.289 0.801,0.328 c 0.936,0.382 22.957,9.604 25.559,30.468 l 0.012,0.129 C 3.6,0.538 4.442,13.681 0.858,20.749 Z" id="path65"/>&#xa;    <path clip-path="url(#clipPath68)" transform="matrix(8.979778,0,0,-8.979778,86.603405,117.68016)" style="fill:#fff200;fill-opacity:1;fill-rule:nonzero;stroke:none;stroke-width:1.00002;stroke-dasharray:none" d="m 0,0 c 0,0 -1.014,-3.165 -0.917,-3.186 0.097,-0.017 1.585,-2.4 3.089,-3.068 L 12.723,-3.127 1.665,-8.616 c 0,0 -0.178,-4.572 0.41,-6.021 0,0 3.807,-1.522 5.764,-1.581 l 8.852,10.826 -6.664,-19.678 c 0,0 4.729,-5.025 8.794,-7.366 0,0 5.823,3.672 8.89,7.366 l -6.68,19.687 8.823,-10.835 c 0,0 4.935,0.858 5.81,1.572 0,0 0.604,2.358 0.494,5.945 l -11.235,5.566 10.741,-3.043 c 0,0 1.644,0.934 2.988,2.988 0,0 -0.165,1.508 -0.85,2.712 0,0 -16.64,4.404 -37.802,0.478" id="path67"/>&#xa;  </g>&#xa;</svg></g></g></g><g data-cell-id="D-qV8WI-u-kMiJ3dtadY-12"><g transform="translate(0.5,0.5)"/><g data-cell-id="T07onBQH2pV3I2XFedzj-3"><g transform="translate(0.5,0.5)"><rect x="403.33" y="380" width="181.67" height="48.33" fill="#ffffff" stroke="#000000" pointer-events="all" style="fill: rgb(255, 255, 255); stroke: rgb(0, 0, 0);"/></g><g><g fill="#000000" font-family="Helvetica" text-anchor="middle" font-size="12px" style="fill: rgb(0, 0, 0);"><text x="494.17" y="409.17">{{ athlete2 }}</text></g></g></g><g data-cell-id="T07onBQH2pV3I2XFedzj-4"><g transform="translate(0.5,0.5)"><rect x="403.33" y="428.33" width="181.67" height="48.33" fill="#ffffff" stroke="#000000" pointer-events="all" style="fill: rgb(255, 255, 255); stroke: rgb(0, 0, 0);"/></g></g><g data-cell-id="T07onBQH2pV3I2XFedzj-7"><g transform="translate(0.5,0.5)"><rect x="585" y="380" width="181.67" height="48.33" fill="#ffffff" stroke="#000000" pointer-events="all" style="fill: rgb(255, 255, 255); stroke: rgb(0, 0, 0);"/></g><g><g fill="#000000" font-family="Helvetica" text-anchor="middle" font-size="12px" style="fill: rgb(0, 0, 0);"><text x="675.83" y="409.17">{{ athlete3 }}</text></g></g></g><g data-cell-id="T07onBQH2pV3I2XFedzj-8"><g transform="translate(0.5,0.5)"><rect x="585" y="428.33" width="181.67" height="48.33" fill="#ffffff" stroke="#000000" pointer-events="all" style="fill: rgb(255, 255, 255); stroke: rgb(0, 0, 0);"/></g></g><g data-cell-id="T07onBQH2pV3I2XFedzj-10"><g transform="translate(0.5,0.5)"><rect x="40" y="380" width="181.67" height="48.33" fill="#ffffff" stroke="#000000" pointer-events="all" style="fill: rgb(255, 255, 255); stroke: rgb(0, 0, 0);"/></g></g><g data-cell-id="T07onBQH2pV3I2XFedzj-11"><g transform="translate(0.5,0.5)"><rect x="40" y="428.33" width="181.67" height="48.33" fill="#ffffff" stroke="#000000" pointer-events="all" style="fill: rgb(255, 255, 255); stroke: rgb(0, 0, 0);"/></g><g><g fill="#000000" font-family="Helvetica" text-anchor="middle" font-size="12px" style="fill: rgb(0, 0, 0);"><text x="130.83" y="457.5">{{ athlete1 }}</text></g></g></g><g data-cell-id="T07onBQH2pV3I2XFedzj-13"><g transform="translate(0.5,0.5)"><rect x="221.67" y="380" width="181.67" height="48.33" fill="#ffffff" stroke="#000000" pointer-events="all" style="fill: rgb(255, 255, 255); stroke: rgb(0, 0, 0);"/></g><g><g fill="#000000" font-family="Helvetica" text-anchor="middle" font-size="12px" style="fill: rgb(0, 0, 0);"><text x="312.5" y="409.17">{{ athlete1 }}</text></g></g></g><g data-cell-id="T07onBQH2pV3I2XFedzj-14"><g transform="translate(0.5,0.5)"><rect x="221.67" y="428.33" width="181.67" height="48.33" fill="#ffffff" stroke="#000000" pointer-events="all" style="fill: rgb(255, 255, 255); stroke: rgb(0, 0, 0);"/></g></g><g data-cell-id="T07onBQH2pV3I2XFedzj-16"><g transform="translate(0.5,0.5)"><rect x="766.67" y="380" width="181.67" height="48.33" fill="#ffffff" stroke="#000000" pointer-events="all" style="fill: rgb(255, 255, 255); stroke: rgb(0, 0, 0);"/></g><g><g fill="#000000" font-family="Helvetica" text-anchor="middle" font-size="12px" style="fill: rgb(0, 0, 0);"><text x="857.5" y="409.17">{{ athlete4 }}</text></g></g></g><g data-cell-id="T07onBQH2pV3I2XFedzj-17"><g transform="translate(0.5,0.5)"><rect x="766.67" y="428.33" width="181.67" height="48.33" fill="#ffffff" stroke="#000000" pointer-events="all" style="fill: rgb(255, 255, 255); stroke: rgb(0, 0, 0);"/></g></g><g data-cell-id="T07onBQH2pV3I2XFedzj-66"><g transform="translate(0.5,0.5)"><rect x="403.33" y="476.67" width="181.67" height="48.33" fill="#ffffff" stroke="#000000" pointer-events="all" style="fill: rgb(255, 255, 255); stroke: rgb(0, 0, 0);"/></g></g><g data-cell-id="T07onBQH2pV3I2XFedzj-67"><g transform="translate(0.5,0.5)"><rect x="403.33" y="525" width="181.67" height="48.33" fill="#ffffff" stroke="#000000" pointer-events="all" style="fill: rgb(255, 255, 255); stroke: rgb(0, 0, 0);"/></g></g><g data-cell-id="T07onBQH2pV3I2XFedzj-69"><g transform="translate(0.5,0.5)"><rect x="585" y="476.67" width="181.67" height="48.33" fill="#ffffff" stroke="#000000" pointer-events="all" style="fill: rgb(255, 255, 255); stroke: rgb(0, 0, 0);"/></g></g><g data-cell-id="T07onBQH2pV3I2XFedzj-70"><g transform="translate(0.5,0.5)"><rect x="585" y="525" width="181.67" height="48.33" fill="#ffffff" stroke="#000000" pointer-events="all" style="fill: rgb(255, 255, 255); stroke: rgb(0, 0, 0);"/></g></g><g data-cell-id="T07onBQH2pV3I2XFedzj-72"><g transform="translate(0.5,0.5)"><rect x="40" y="476.67" width="181.67" height="48.33" fill="#ffffff" stroke="#000000" pointer-events="all" style="fill: rgb(255, 255, 255); stroke: rgb(0, 0, 0);"/></g><g><g fill="#000000" font-family="Helvetica" text-anchor="middle" font-size="12px" style="fill: rgb(0, 0, 0);"><text x="130.83" y="505.83">{{ athlete2 }}</text></g></g></g><g data-cell-id="T07onBQH2pV3I2XFedzj-73"><g transform="translate(0.5,0.5)"><rect x="40" y="525" width="181.67" height="48.33" fill="#ffffff" stroke="#000000" pointer-events="all" style="fill: rgb(255, 255, 255); stroke: rgb(0, 0, 0);"/></g><g><g fill="#000000" font-family="Helvetica" text-anchor="middle" font-size="12px" style="fill: rgb(0, 0, 0);"><text x="130.83" y="554.17">{{ athlete3 }}</text></g></g></g><g data-cell-id="T07onBQH2pV3I2XFedzj-75"><g transform="translate(0.5,0.5)"><rect x="221.67" y="476.67" width="181.67" height="48.33" fill="#ffffff" stroke="#000000" pointer-events="all" style="fill: rgb(255, 255, 255); stroke: rgb(0, 0, 0);"/></g></g><g data-cell-id="T07onBQH2pV3I2XFedzj-76"><g transform="translate(0.5,0.5)"><rect x="221.67" y="525" width="181.67" height="48.33" fill="#ffffff" stroke="#000000" pointer-events="all" style="fill: rgb(255, 255, 255); stroke: rgb(0, 0, 0);"/></g></g><g data-cell-id="T07onBQH2pV3I2XFedzj-78"><g transform="translate(0.5,0.5)"><rect x="766.67" y="476.67" width="181.67" height="48.33" fill="#ffffff" stroke="#000000" pointer-events="all" style="fill: rgb(255, 255, 255); stroke: rgb(0, 0, 0);"/></g></g><g data-cell-id="T07onBQH2pV3I2XFedzj-79"><g transform="translate(0.5,0.5)"><rect x="766.67" y="525" width="181.67" height="48.33" fill="#ffffff" stroke="#000000" pointer-events="all" style="fill: rgb(255, 255, 255); stroke: rgb(0, 0, 0);"/></g></g><g data-cell-id="T07onBQH2pV3I2XFedzj-94"><g transform="translate(0.5,0.5)"><rect x="766.67" y="573.33" width="181.67" height="48.33" fill="#ffffff" stroke="#000000" pointer-events="all" style="fill: rgb(255, 255, 255); stroke: rgb(0, 0, 0);"/></g></g><g data-cell-id="T07onBQH2pV3I2XFedzj-88"><g transform="translate(0.5,0.5)"><rect x="40" y="573.33" width="181.67" height="48.33" fill="#ffffff" stroke="#000000" pointer-events="all" style="fill: rgb(255, 255, 255); stroke: rgb(0, 0, 0);"/></g><g><g fill="#000000" font-family="Helvetica" text-anchor="middle" font-size="12px" style="fill: rgb(0, 0, 0);"><text x="130.83" y="602.5">{{ athlete4 }}</text></g></g></g><g data-cell-id="T07onBQH2pV3I2XFedzj-91"><g transform="translate(0.5,0.5)"><rect x="221.67" y="573.33" width="181.67" height="48.33" fill="#ffffff" stroke="#000000" pointer-events="all" style="fill: rgb(255, 255, 255); stroke: rgb(0, 0, 0);"/></g></g><g data-cell-id="T07onBQH2pV3I2XFedzj-82"><g transform="translate(0.5,0.5)"><rect x="403.33" y="573.33" width="181.67" height="48.33" fill="#ffffff" stroke="#000000" pointer-events="all" style="fill: rgb(255, 255, 255); stroke: rgb(0, 0, 0);"/></g></g><g data-cell-id="T07onBQH2pV3I2XFedzj-85"><g transform="translate(0.5,0.5)"><rect x="585" y="573.33" width="181.67" height="48.33" fill="#ffffff" stroke="#000000" pointer-events="all" style="fill: rgb(255, 255, 255); stroke: rgb(0, 0, 0);"/></g></g><g data-cell-id="D-qV8WI-u-kMiJ3dtadY-1"><g transform="translate(0.5,0.5)"><rect x="948.33" y="380" width="181.67" height="48.33" fill="#ffffff" stroke="#000000" pointer-events="all" style="fill: rgb(255, 255, 255); stroke: rgb(0, 0, 0);"/></g><g><g fill="#000000" font-family="Helvetica" text-anchor="middle" font-size="12px" style="fill: rgb(0, 0, 0);"><text x="1039.17" y="409.17">{{ athlete5 }}</text></g></g></g><g data-cell-id="D-qV8WI-u-kMiJ3dtadY-2"><g transform="translate(0.5,0.5)"><rect x="948.33" y="428.33" width="181.67" height="48.33" fill="#ffffff" stroke="#000000" pointer-events="all" style="fill: rgb(255, 255, 255); stroke: rgb(0, 0, 0);"/></g></g><g data-cell-id="D-qV8WI-u-kMiJ3dtadY-3"><g transform="translate(0.5,0.5)"><rect x="948.33" y="476.67" width="181.67" height="48.33" fill="#ffffff" stroke="#000000" pointer-events="all" style="fill: rgb(255, 255, 255); stroke: rgb(0, 0, 0);"/></g></g><g data-cell-id="D-qV8WI-u-kMiJ3dtadY-4"><g transform="translate(0.5,0.5)"><rect x="948.33" y="525" width="181.67" height="48.33" fill="#ffffff" stroke="#000000" pointer-events="all" style="fill: rgb(255, 255, 255); stroke: rgb(0, 0, 0);"/></g></g><g data-cell-id="D-qV8WI-u-kMiJ3dtadY-5"><g transform="translate(0.5,0.5)"><rect x="948.33" y="573.33" width="181.67" height="48.33" fill="#ffffff" stroke="#000000" pointer-events="all" style="fill: rgb(255, 255, 255); stroke: rgb(0, 0, 0);"/></g></g><g data-cell-id="D-qV8WI-u-kMiJ3dtadY-6"><g transform="translate(0.5,0.5)"><rect x="766.67" y="621.67" width="181.67" height="48.33" fill="#ffffff" stroke="#000000" pointer-events="all" style="fill: rgb(255, 255, 255); stroke: rgb(0, 0, 0);"/></g></g><g data-cell-id="D-qV8WI-u-kMiJ3dtadY-7"><g transform="translate(0.5,0.5)"><rect x="40" y="621.67" width="181.67" height="48.33" fill="#ffffff" stroke="#000000" pointer-events="all" style="fill: rgb(255, 255, 255); stroke: rgb(0, 0, 0);"/></g><g><g fill="#000000" font-family="Helvetica" text-anchor="middle" font-size="12px" style="fill: rgb(0, 0, 0);"><text x="130.83" y="650.83">{{ athlete5 }}</text></g></g></g><g data-cell-id="D-qV8WI-u-kMiJ3dtadY-8"><g transform="translate(0.5,0.5)"><rect x="221.67" y="621.67" width="181.67" height="48.33" fill="#ffffff" stroke="#000000" pointer-events="all" style="fill: rgb(255, 255, 255); stroke: rgb(0, 0, 0);"/></g></g><g data-cell-id="D-qV8WI-u-kMiJ3dtadY-9"><g transform="translate(0.5,0.5)"><rect x="403.33" y="621.67" width="181.67" height="48.33" fill="#ffffff" stroke="#000000" pointer-events="all" style="fill: rgb(255, 255, 255); stroke: rgb(0, 0, 0);"/></g></g><g data-cell-id="D-qV8WI-u-kMiJ3dtadY-10"><g transform="translate(0.5,0.5)"><rect x="585" y="621.67" width="181.67" height="48.33" fill="#ffffff" stroke="#000000" pointer-events="all" style="fill: rgb(255, 255, 255); stroke: rgb(0, 0, 0);"/></g></g><g data-cell-id="D-qV8WI-u-kMiJ3dtadY-11"><g transform="translate(0.5,0.5)"><rect x="948.33" y="621.67" width="181.67" height="48.33" fill="#ffffff" stroke="#000000" pointer-events="all" style="fill: rgb(255, 255, 255); stroke: rgb(0, 0, 0);"/></g></g><g data-cell-id="T07onBQH2pV3I2XFedzj-99"><g transform="translate(0.5,0.5)"><path d="M 40 380 L 1130 670" fill="none" stroke="#000000" stroke-miterlimit="10" pointer-events="stroke" style="stroke: rgb(0, 0, 0);"/></g></g></g></g></g></g></svg>