<?xml version="1.0" encoding="UTF-8"?>
<!DOCTYPE svg PUBLIC "-//W3C//DTD SVG 1.1//EN" "http://www.w3.org/Graphics/SVG/1.1/DTD/svg11.dtd">
<svg xmlns="http://www.w3.org/2000/svg" style="background: #ffffff; background-color: #ffffff; color-scheme: light;" xmlns:xlink="http://www.w3.org/1999/xlink" version="1.1" width="1169px" height="827px" viewBox="-0.5 -0.5 1169 827"><defs/><rect fill="#ffffff" width="100%" height="100%" x="0" y="0" style="fill: rgb(255, 255, 255);"/><g><g data-cell-id="0"><g data-cell-id="1"><g data-cell-id="T07onBQH2pV3I2XFedzj-3"><g><rect x="476" y="380" width="218" height="58" fill="#ffffff" stroke="#000000" pointer-events="all" style="fill: rgb(255, 255, 255); stroke: rgb(0, 0, 0);"/></g><g><g fill="#000000" font-family="&quot;Helvetica&quot;" text-anchor="middle" font-size="12px" style="fill: rgb(0, 0, 0);"><text x="584.5" y="413.5">{{ athlete2 }}</text></g></g></g><g data-cell-id="T07onBQH2pV3I2XFedzj-4"><g><rect x="476" y="438" width="218" height="58" fill="#ffffff" stroke="#000000" pointer-events="all" style="fill: rgb(255, 255, 255); stroke: rgb(0, 0, 0);"/></g></g><g data-cell-id="T07onBQH2pV3I2XFedzj-7"><g><rect x="694" y="380" width="218" height="58" fill="#ffffff" stroke="#000000" pointer-events="all" style="fill: rgb(255, 255, 255); stroke: rgb(0, 0, 0);"/></g><g><g fill="#000000" font-family="&quot;Helvetica&quot;" text-anchor="middle" font-size="12px" style="fill: rgb(0, 0, 0);"><text x="802.5" y="413.5">{{ athlete3 }}</text></g></g></g><g data-cell-id="T07onBQH2pV3I2XFedzj-8"><g><rect x="694" y="438" width="218" height="58" fill="#ffffff" stroke="#000000" pointer-events="all" style="fill: rgb(255, 255, 255); stroke: rgb(0, 0, 0);"/></g></g><g data-cell-id="T07onBQH2pV3I2XFedzj-10"><g><rect x="40" y="380" width="218" height="58" fill="#ffffff" stroke="#000000" pointer-events="all" style="fill: rgb(255, 255, 255); stroke: rgb(0, 0, 0);"/></g></g><g data-cell-id="T07onBQH2pV3I2XFedzj-11"><g><rect x="40" y="438" width="218" height="58" fill="#ffffff" stroke="#000000" pointer-events="all" style="fill: rgb(255, 255, 255); stroke: rgb(0, 0, 0);"/></g><g><g fill="#000000" font-family="&quot;Helvetica&quot;" text-anchor="middle" font-size="12px" style="fill: rgb(0, 0, 0);"><text x="148.5" y="471.5">{{ athlete1 }}</text></g></g></g><g data-cell-id="T07onBQH2pV3I2XFedzj-13"><g><rect x="258" y="380" width="218" height="58" fill="#ffffff" stroke="#000000" pointer-events="all" style="fill: rgb(255, 255, 255); stroke: rgb(0, 0, 0);"/></g><g><g fill="#000000" font-family="&quot;Helvetica&quot;" text-anchor="middle" font-size="12px" style="fill: rgb(0, 0, 0);"><text x="366.5" y="413.5">{{ athlete1 }}</text></g></g></g><g data-cell-id="T07onBQH2pV3I2XFedzj-14"><g><rect x="258" y="438" width="218" height="58" fill="#ffffff" stroke="#000000" pointer-events="all" style="fill: rgb(255, 255, 255); stroke: rgb(0, 0, 0);"/></g></g><g data-cell-id="T07onBQH2pV3I2XFedzj-16"><g><rect x="912" y="380" width="218" height="58" fill="#ffffff" stroke="#000000" pointer-events="all" style="fill: rgb(255, 255, 255); stroke: rgb(0, 0, 0);"/></g><g><g fill="#000000" font-family="&quot;Helvetica&quot;" text-anchor="middle" font-size="12px" style="fill: rgb(0, 0, 0);"><text x="1020.5" y="413.5">{{ athlete4 }}</text></g></g></g><g data-cell-id="T07onBQH2pV3I2XFedzj-17"><g><rect x="912" y="438" width="218" height="58" fill="#ffffff" stroke="#000000" pointer-events="all" style="fill: rgb(255, 255, 255); stroke: rgb(0, 0, 0);"/></g></g><g data-cell-id="T07onBQH2pV3I2XFedzj-66"><g><rect x="476" y="496" width="218" height="58" fill="#ffffff" stroke="#000000" pointer-events="all" style="fill: rgb(255, 255, 255); stroke: rgb(0, 0, 0);"/></g></g><g data-cell-id="T07onBQH2pV3I2XFedzj-67"><g><rect x="476" y="554" width="218" height="58" fill="#ffffff" stroke="#000000" pointer-events="all" style="fill: rgb(255, 255, 255); stroke: rgb(0, 0, 0);"/></g></g><g data-cell-id="T07onBQH2pV3I2XFedzj-69"><g><rect x="694" y="496" width="218" height="58" fill="#ffffff" stroke="#000000" pointer-events="all" style="fill: rgb(255, 255, 255); stroke: rgb(0, 0, 0);"/></g></g><g data-cell-id="T07onBQH2pV3I2XFedzj-70"><g><rect x="694" y="554" width="218" height="58" fill="#ffffff" stroke="#000000" pointer-events="all" style="fill: rgb(255, 255, 255); stroke: rgb(0, 0, 0);"/></g></g><g data-cell-id="T07onBQH2pV3I2XFedzj-72"><g><rect x="40" y="496" width="218" height="58" fill="#ffffff" stroke="#000000" pointer-events="all" style="fill: rgb(255, 255, 255); stroke: rgb(0, 0, 0);"/></g><g><g fill="#000000" font-family="&quot;Helvetica&quot;" text-anchor="middle" font-size="12px" style="fill: rgb(0, 0, 0);"><text x="148.5" y="529.5">{{ athlete2 }}</text></g></g></g><g data-cell-id="T07onBQH2pV3I2XFedzj-73"><g><rect x="40" y="554" width="218" height="58" fill="#ffffff" stroke="#000000" pointer-events="all" style="fill: rgb(255, 255, 255); stroke: rgb(0, 0, 0);"/></g><g><g fill="#000000" font-family="&quot;Helvetica&quot;" text-anchor="middle" font-size="12px" style="fill: rgb(0, 0, 0);"><text x="148.5" y="587.5">{{ athlete3 }}</text></g></g></g><g data-cell-id="T07onBQH2pV3I2XFedzj-75"><g><rect x="258" y="496" width="218" height="58" fill="#ffffff" stroke="#000000" pointer-events="all" style="fill: rgb(255, 255, 255); stroke: rgb(0, 0, 0);"/></g></g><g data-cell-id="T07onBQH2pV3I2XFedzj-76"><g><rect x="258" y="554" width="218" height="58" fill="#ffffff" stroke="#000000" pointer-events="all" style="fill: rgb(255, 255, 255); stroke: rgb(0, 0, 0);"/></g></g><g data-cell-id="T07onBQH2pV3I2XFedzj-78"><g><rect x="912" y="496" width="218" height="58" fill="#ffffff" stroke="#000000" pointer-events="all" style="fill: rgb(255, 255, 255); stroke: rgb(0, 0, 0);"/></g></g><g data-cell-id="T07onBQH2pV3I2XFedzj-79"><g><rect x="912" y="554" width="218" height="58" fill="#ffffff" stroke="#000000" pointer-events="all" style="fill: rgb(255, 255, 255); stroke: rgb(0, 0, 0);"/></g></g><g data-cell-id="T07onBQH2pV3I2XFedzj-94"><g><rect x="912" y="612" width="218" height="58" fill="#ffffff" stroke="#000000" pointer-events="all" style="fill: rgb(255, 255, 255); stroke: rgb(0, 0, 0);"/></g></g><g data-cell-id="T07onBQH2pV3I2XFedzj-88"><g><rect x="40" y="612" width="218" height="58" fill="#ffffff" stroke="#000000" pointer-events="all" style="fill: rgb(255, 255, 255); stroke: rgb(0, 0, 0);"/></g><g><g fill="#000000" font-family="&quot;Helvetica&quot;" text-anchor="middle" font-size="12px" style="fill: rgb(0, 0, 0);"><text x="148.5" y="645.5">{{ athlete4 }}</text></g></g></g><g data-cell-id="T07onBQH2pV3I2XFedzj-91"><g><rect x="258" y="612" width="218" height="58" fill="#ffffff" stroke="#000000" pointer-events="all" style="fill: rgb(255, 255, 255); stroke: rgb(0, 0, 0);"/></g></g><g data-cell-id="T07onBQH2pV3I2XFedzj-82"><g><rect x="476" y="612" width="218" height="58" fill="#ffffff" stroke="#000000" pointer-events="all" style="fill: rgb(255, 255, 255); stroke: rgb(0, 0, 0);"/></g></g><g data-cell-id="T07onBQH2pV3I2XFedzj-85"><g><rect x="694" y="612" width="218" height="58" fill="#ffffff" stroke="#000000" pointer-events="all" style="fill: rgb(255, 255, 255); stroke: rgb(0, 0, 0);"/></g></g><g data-cell-id="T07onBQH2pV3I2XFedzj-99"><g><path d="M 40 380 L 1130 670" fill="none" stroke="#000000" stroke-miterlimit="10" pointer-events="stroke" style="stroke: rgb(0, 0, 0);"/></g></g><g data-cell-id="muOkb-H4uWtmL-af8cGg-2"><g><rect x="597" y="40" width="530" height="40" rx="6" ry="6" fill="#ffffff" stroke="#000000" pointer-events="all" style="fill: rgb(255, 255, 255); stroke: rgb(0, 0, 0);"/></g><g><g fill="#000000" font-family="&quot;Helvetica&quot;" text-anchor="middle" font-size="18px" style="fill: rgb(0, 0, 0);"><text x="861.5" y="67.5">{{ category }}</text></g></g></g><g data-cell-id="muOkb-H4uWtmL-af8cGg-3"><g><rect x="42" y="40" width="530" height="40" rx="6" ry="6" fill="#ffffff" stroke="#000000" pointer-events="all" style="fill: rgb(255, 255, 255); stroke: rgb(0, 0, 0);"/></g><g><g fill="#000000" font-family="&quot;Helvetica&quot;" text-anchor="middle" font-size="18px" style="fill: rgb(0, 0, 0);"><text x="306.5" y="67.5">{{ tournament_name }}</text></g></g></g><g data-cell-id="muOkb-H4uWtmL-af8cGg-23"><g><rect x="750" y="10" width="410" height="20" fill="none" stroke="none" pointer-events="all"/></g><g><g fill="#000000" font-family="&quot;Helvetica&quot;" text-anchor="end" font-size="12px" style="fill: rgb(0, 0, 0);"><text x="1157.5" y="24.5">{{ start_time_tatami }}</text></g></g></g><g data-cell-id="muOkb-H4uWtmL-af8cGg-24"><g/><g data-cell-id="muOkb-H4uWtmL-af8cGg-25"><g/><g data-cell-id="muOkb-H4uWtmL-af8cGg-26"><g><rect x="690" y="700" width="220" height="20" fill="#ffffff" stroke="#000000" pointer-events="all" style="fill: rgb(255, 255, 255); stroke: rgb(0, 0, 0);"/></g></g><g data-cell-id="muOkb-H4uWtmL-af8cGg-27"><g><rect x="910" y="700" width="220" height="20" fill="#ffffff" stroke="#000000" pointer-events="all" style="fill: rgb(255, 255, 255); stroke: rgb(0, 0, 0);"/></g></g><g data-cell-id="muOkb-H4uWtmL-af8cGg-28"><g><rect x="660" y="700" width="30" height="20" fill="#ffffff" stroke="#000000" pointer-events="all" style="fill: rgb(255, 255, 255); stroke: rgb(0, 0, 0);"/></g></g></g><g data-cell-id="muOkb-H4uWtmL-af8cGg-29"><g/><g data-cell-id="muOkb-H4uWtmL-af8cGg-30"><g><rect x="690" y="720" width="220" height="20" fill="#ffffff" stroke="#000000" pointer-events="all" style="fill: rgb(255, 255, 255); stroke: rgb(0, 0, 0);"/></g></g><g data-cell-id="muOkb-H4uWtmL-af8cGg-31"><g><rect x="910" y="720" width="220" height="20" fill="#ffffff" stroke="#000000" pointer-events="all" style="fill: rgb(255, 255, 255); stroke: rgb(0, 0, 0);"/></g></g><g data-cell-id="muOkb-H4uWtmL-af8cGg-32"><g><rect x="660" y="720" width="30" height="20" fill="#ffffff" stroke="#000000" pointer-events="all" style="fill: rgb(255, 255, 255); stroke: rgb(0, 0, 0);"/></g></g></g><g data-cell-id="muOkb-H4uWtmL-af8cGg-33"><g/><g data-cell-id="muOkb-H4uWtmL-af8cGg-34"><g><rect x="690" y="740" width="220" height="20" fill="#ffffff" stroke="#000000" pointer-events="all" style="fill: rgb(255, 255, 255); stroke: rgb(0, 0, 0);"/></g></g><g data-cell-id="muOkb-H4uWtmL-af8cGg-35"><g><rect x="910" y="740" width="220" height="20" fill="#ffffff" stroke="#000000" pointer-events="all" style="fill: rgb(255, 255, 255); stroke: rgb(0, 0, 0);"/></g></g><g data-cell-id="muOkb-H4uWtmL-af8cGg-36"><g><rect x="660" y="740" width="30" height="20" fill="#ffffff" stroke="#000000" pointer-events="all" style="fill: rgb(255, 255, 255); stroke: rgb(0, 0, 0);"/></g></g></g><g data-cell-id="muOkb-H4uWtmL-af8cGg-37"><g/><g data-cell-id="muOkb-H4uWtmL-af8cGg-38"><g><rect x="690" y="760" width="220" height="20" fill="#ffffff" stroke="#000000" pointer-events="all" style="fill: rgb(255, 255, 255); stroke: rgb(0, 0, 0);"/></g></g><g data-cell-id="muOkb-H4uWtmL-af8cGg-39"><g><rect x="910" y="760" width="220" height="20" fill="#ffffff" stroke="#000000" pointer-events="all" style="fill: rgb(255, 255, 255); stroke: rgb(0, 0, 0);"/></g></g><g data-cell-id="muOkb-H4uWtmL-af8cGg-40"><g><rect x="660" y="760" width="30" height="20" fill="#ffffff" stroke="#000000" pointer-events="all" style="fill: rgb(255, 255, 255); stroke: rgb(0, 0, 0);"/></g></g></g></g><g data-cell-id="muOkb-H4uWtmL-af8cGg-41"><g><g><svg width="197.15" height="212.06" viewBox="18.236122131347656 -8.741553756408393e-7 475.5277099609375 512.0000610351562" version="1.1" id="svg1" xmlns="http://www.w3.org/2000/svg" x="485.5" y="119.5" style="font-family: initial;">&#xa;  <defs id="defs1">&#xa;    <clipPath clipPathUnits="userSpaceOnUse" id="clipPath66">&#xa;      <path d="M 0,595.276 H 841.89 V 0 H 0 Z" transform="translate(-140.4205,-92.595702)" id="path66"/>&#xa;    </clipPath>&#xa;    <clipPath clipPathUnits="userSpaceOnUse" id="clipPath68">&#xa;      <path d="M 0,595.276 H 841.89 V 0 H 0 Z" transform="translate(-98.891305,-105.55561)" id="path68"/>&#xa;    </clipPath>&#xa;  </defs>&#xa;  <g id="layer1">&#xa;    <path id="path65" d="m 0,0 c -2.337,-18.719 -22.869,-27.107 -22.869,-27.107 -10.183,3.604 -21.686,15.592 -22.657,27.158 -0.968,11.569 2.222,18.487 2.222,18.487 23.372,8.683 40.972,0 40.972,0 C 0.833,12.301 0,0 0,0 m 0.515,21.425 -0.679,0.335 c -0.357,0.177 -8.894,4.314 -22.1,4.314 -7.719,0 -15.456,-1.42 -22.994,-4.221 l -0.88,-0.327 -0.393,-0.852 c -0.148,-0.321 -3.612,-8.001 -2.547,-20.673 1.117,-13.349 14.062,-26.628 25.451,-30.655 l 0.817,-0.289 0.801,0.328 c 0.936,0.382 22.957,9.604 25.559,30.468 l 0.012,0.129 C 3.6,0.538 4.442,13.681 0.858,20.749 Z" style="fill:#fff200;fill-opacity:1;fill-rule:nonzero;stroke:none;stroke-width:1.00002;stroke-dasharray:none" transform="matrix(8.979778,0,0,-8.979778,460.76908,234.13873)" clip-path="url(#clipPath66)"/>&#xa;    <path id="path67" d="m 0,0 c 0,0 -1.014,-3.165 -0.917,-3.186 0.097,-0.017 1.585,-2.4 3.089,-3.068 L 12.723,-3.127 1.665,-8.616 c 0,0 -0.178,-4.572 0.41,-6.021 0,0 3.807,-1.522 5.764,-1.581 l 8.852,10.826 -6.664,-19.678 c 0,0 4.729,-5.025 8.794,-7.366 0,0 5.823,3.672 8.89,7.366 l -6.68,19.687 8.823,-10.835 c 0,0 4.935,0.858 5.81,1.572 0,0 0.604,2.358 0.494,5.945 l -11.235,5.566 10.741,-3.043 c 0,0 1.644,0.934 2.988,2.988 0,0 -0.165,1.508 -0.85,2.712 0,0 -16.64,4.404 -37.802,0.478" style="fill:#fff200;fill-opacity:1;fill-rule:nonzero;stroke:none;stroke-width:1.00002;stroke-dasharray:none" transform="matrix(8.979778,0,0,-8.979778,86.603405,117.68016)" clip-path="url(#clipPath68)"/>&#xa;  </g>&#xa;</svg></g></g></g></g></g></g></svg>