<?xml version="1.0" encoding="UTF-8" standalone="no"?>
<svg
   xmlns:dc="http://purl.org/dc/elements/1.1/"
   xmlns:cc="http://creativecommons.org/ns#"
   xmlns:rdf="http://www.w3.org/1999/02/22-rdf-syntax-ns#"
   xmlns:svg="http://www.w3.org/2000/svg"
   xmlns="http://www.w3.org/2000/svg"
   viewBox="0 0 139.93201 32.309467"
   height="32.309467"
   width="139.93201"
   xml:space="preserve"
   id="svg2"
   version="1.1"><metadata
     id="metadata8"><rdf:RDF><cc:Work
         rdf:about=""><dc:format>image/svg+xml</dc:format><dc:type
           rdf:resource="http://purl.org/dc/dcmitype/StillImage" /></cc:Work></rdf:RDF></metadata><defs
     id="defs6"><clipPath
       id="clipPath18"
       clipPathUnits="userSpaceOnUse"><path
         id="path16"
         d="M 0,24.232 H 104.949 V 0 H 0 Z" /></clipPath></defs><g
     transform="matrix(1.3333333,0,0,-1.3333333,0,32.309467)"
     id="g10"><g
       id="g12"><g
         clip-path="url(#clipPath18)"
         id="g14"><g
           transform="translate(40.5393,6.6594)"
           id="g20"><path
             id="path22"
             style="fill:#fff200;fill-opacity:1;fill-rule:nonzero;stroke:none"
             d="M 0,0 2.957,-0.016 C 3.118,0.271 3.832,4.317 4.008,5.256 L 4.122,5.824 C 4.187,5.991 4.163,5.938 4.24,6.014 L 5.248,2.725 7.542,2.706 c 0.394,0.579 0.781,1.232 1.156,1.797 0.305,0.461 0.903,1.529 1.185,1.802 l -1.053,-6.3 3.004,-0.014 2.035,11.925 -3.088,0.011 C 10.399,11.237 8.599,8.677 7.967,7.796 7.716,7.446 7.267,6.642 6.956,6.439 6.759,6.762 6.231,8.785 6.113,9.168 5.823,10.111 5.578,11.103 5.254,11.923 L 2.043,11.93 Z M 43.728,11.404 C 44.285,9.801 44.477,7.993 44.13,6.181 43.816,4.546 42.986,3.299 42.054,2.301 41.728,1.951 39.293,-0.174 38.503,-0.1 c -0.677,0.063 -2.891,1.797 -3.504,2.475 -1.673,1.851 -2.439,4.052 -2.131,6.696 0.062,0.54 0.265,2.164 0.647,2.366 1.751,0.924 5.593,1.019 7.855,0.616 0.919,-0.164 1.509,-0.41 2.358,-0.649 M 32.237,6.997 c 0.359,-3.736 2.953,-6.142 5.679,-7.517 0.781,-0.393 0.748,-0.359 2.265,0.548 4.076,2.439 5.667,6.519 4.251,11.261 -0.2,0.669 -0.197,0.572 -0.855,0.794 -3.191,1.081 -6.799,1.108 -9.91,0.046 -0.594,-0.203 -0.753,-0.122 -0.941,-0.72 -0.432,-1.373 -0.629,-2.96 -0.489,-4.412 M 28.068,0.006 c 0.284,1.952 0.694,3.867 1.014,5.844 0.163,1.013 0.991,5.297 0.979,5.92 l -2.945,-0.034 -2.03,-11.74 z m 9.764,9.405 C 37.716,9.143 37.196,8.996 36.927,8.862 L 34.045,7.45 c -0.061,-0.54 0.021,-0.909 0.064,-1.43 1.718,-0.473 1.065,-0.695 2.712,1.288 0.253,0.304 1.13,1.514 1.426,1.554 0.007,-0.403 -1.645,-4.902 -1.886,-5.713 0.249,-0.46 1.709,-1.669 2.205,-1.85 0.636,0.282 1.77,1.317 2.175,1.775 -0.044,0.688 -1.895,5.233 -1.86,5.792 0.392,-0.058 2.164,-2.68 2.778,-3.179 l 1.348,0.321 0.117,1.363 c -0.61,0.567 -3.597,1.583 -3.863,2.04 0.337,0.19 3.216,-0.977 3.907,-0.971 0.524,0.454 0.753,0.544 0.338,1.381 -1.388,0.173 -2.603,0.415 -4.033,0.494 C 37.62,10.417 35.892,10.239 34.134,9.993 33.659,9.927 33.636,9.97 33.477,9.52 33.335,9.121 33.37,9.008 33.601,8.748 34.107,8.177 34.66,8.578 36.1,9.006 l 1.288,0.38 c 0.021,0.007 0.224,0.057 0.226,0.057 z M 18.495,6.095 c -0.022,0.51 0.353,2.646 0.49,3.208 1.608,0.09 2.913,0.271 2.483,-1.723 -0.33,-1.526 -1.376,-1.55 -2.973,-1.485 m -4.148,-6.085 2.944,-0.027 0.697,3.523 c 1.434,0.121 3.317,-0.21 4.852,0.958 1.399,1.064 1.528,2.009 1.823,4.06 0.305,2.115 -0.533,3.148 -2.459,3.326 -1.547,0.142 -4.165,0.099 -5.763,-0.002 z M -27.63,4.087 c -0.285,-0.592 -0.413,-1.15 -0.979,-1.507 -0.523,-0.33 -1.42,-0.428 -1.878,0.021 -0.7,0.688 -0.142,3.161 0.07,4.117 0.279,1.268 0.566,2.815 2.139,2.758 0.684,-0.025 1.136,-0.543 1.192,-1.204 0.082,-0.953 -0.353,-1.355 -0.422,-1.962 l 2.929,0.04 c 1.577,3.382 0.467,5.75 -3.547,5.648 -3.802,-0.098 -4.651,-2.014 -5.279,-5.294 -0.234,-1.222 -0.736,-3.45 -0.498,-4.726 0.585,-3.135 5.953,-2.434 7.412,-1.295 0.951,0.743 1.721,2.14 1.728,3.439 z m 22.577,0.74 -0.364,-0.022 -0.377,0.004 -0.377,10e-4 -0.983,0.009 1.28,4.125 0.976,0.012 z m -2.778,-2.271 2.672,0.009 -0.033,-2.583 3.136,0.004 -0.068,11.832 c -0.641,0.174 -4.433,0.02 -5.405,0.02 -0.245,-0.067 -1.007,-2.542 -1.153,-2.934 l -3.13,-8.915 3.137,0.024 z m -9.075,-2.568 c 0.736,-0.012 1.473,0.023 2.211,0.02 1.059,-0.004 0.792,0.031 0.968,1.108 0.217,1.328 1.865,10.309 1.846,10.759 l -2.967,0.005 -0.905,-4.988 -3.116,0.018 c -0.026,0.574 0.261,1.89 0.378,2.532 0.09,0.492 0.416,1.98 0.378,2.428 -3.63,0.129 -2.872,0.263 -3.22,-1.563 l -0.779,-4.428 c -0.163,-0.942 -1.004,-5.365 -1.016,-5.876 0.48,-0.047 1.074,-0.007 1.567,-0.001 0.251,0.003 0.505,0.008 0.756,0.007 0.516,-0.002 0.505,-0.041 0.639,0.092 0.171,0.175 0.671,3.577 0.763,4.136 0.394,0.128 2.658,0.073 3.207,0.039 z m 74.6,11.891 -2.961,-0.017 -1.12,-5.799 -1.948,5.803 -3.088,-0.029 C 48.446,12.069 46.503,0.492 46.477,-0.02 l 2.983,0.039 1.166,6.137 1.972,-6.169 3.065,0.025 z" /></g></g></g></g></svg>