<?xml version="1.0" encoding="UTF-8" standalone="no"?>
<svg
   version="1.1"
   width="575.06799"
   height="575.06775"
   viewBox="0 0 575.06798 575.06775"
   id="svg8"
   xmlns="http://www.w3.org/2000/svg"
   xmlns:svg="http://www.w3.org/2000/svg">
  <defs
     id="defs1">
    <clipPath
       id="clip_0">
      <path
         transform="matrix(1,0,0,-1,0,595.276)"
         d="M 0,595.276 H 841.89 V 0 H 0 Z"
         id="path1" />
    </clipPath>
  </defs>
  <g
     id="g8"
     transform="translate(-129.985,-9.8355503)">
    <path
       transform="matrix(1,0,0,-1,404.1065,187.49622)"
       d="m 0,0 24.385,72.005 h 0.331 L 46.463,0 h 32.956 l 39.707,124.235 H 85.516 L 62.117,43.992 H 61.784 L 37.402,124.235 H 11.699 L -14.334,43.992 h -0.33 l -21.584,80.243 H -69.861 L -32.789,0 Z"
       fill="#005d94"
       id="path2"
       style="fill:#fff200;fill-opacity:1" />
    <g
       clip-path="url(#clip_0)"
       id="g7">
      <path
         transform="matrix(1,0,0,-1,423.2735,297.3693)"
         d="m 0,0 280.587,280.587 c 1.59,1.59 1.59,4.166 0,5.755 -1.588,1.589 -4.166,1.589 -5.754,0 L -5.754,5.754 -286.342,286.342 c -1.588,1.589 -4.166,1.589 -5.754,0 -1.59,-1.589 -1.59,-4.165 0,-5.755 L -11.509,0 -292.096,-280.588 c -1.59,-1.589 -1.59,-4.165 0,-5.754 0.794,-0.794 1.836,-1.192 2.877,-1.192 1.042,0 2.083,0.398 2.877,1.192 L -5.754,-5.754 274.833,-286.342 c 0.794,-0.794 1.836,-1.192 2.877,-1.192 1.041,0 2.083,0.398 2.877,1.192 1.59,1.589 1.59,4.165 0,5.754 z"
         fill="#005d94"
         id="path3"
         style="fill:#fff200;fill-opacity:1" />
      <path
         transform="matrix(1,0,0,-1,184.5773,211.87839)"
         d="m 0,0 v -124.235 h 32.296 v 50.912 h 46.63 v -50.912 h 32.292 V 0 H 78.926 V -47.95 H 32.296 V 0 Z"
         fill="#005d94"
         id="path4"
         style="fill:#fff200;fill-opacity:1" />
      <path
         transform="matrix(1,0,0,-1,623.575,253.7323)"
         d="m 0,0 c 0,-15.154 -11.532,-15.154 -23.232,-15.154 h -5.436 v 30.975 h 5.436 C -10.712,15.821 0,15.654 0,0 M -60.963,41.854 V -82.381 h 32.295 v 41.194 h 18.289 c 28.174,0 43.989,12.846 43.989,42.181 0,28.501 -18.449,40.86 -45.142,40.86 z"
         fill="#005d94"
         id="path5"
         style="fill:#fff200;fill-opacity:1" />
      <path
         transform="matrix(1,0,0,-1,475.3503,461.3318)"
         d="m 0,0 c -5.926,-47.47 -57.993,-68.741 -57.993,-68.741 -25.825,9.14 -54.993,39.541 -57.458,68.87 -2.453,29.339 5.637,46.881 5.637,46.881 59.268,22.021 103.899,0 103.899,0 C 2.111,31.193 0,0 0,0 m 1.307,54.332 -1.723,0.85 c -0.905,0.447 -22.555,10.939 -56.043,10.939 -19.576,0 -39.195,-3.601 -58.31,-10.705 l -2.232,-0.829 -0.996,-2.161 c -0.376,-0.814 -9.159,-20.289 -6.459,-52.424 2.833,-33.852 35.658,-67.526 64.541,-77.738 l 2.07,-0.732 2.033,0.83 c 2.374,0.97 58.215,24.356 64.815,77.266 l 0.03,0.325 c 0.096,1.411 2.232,34.74 -6.857,52.665 z"
         fill="#005d94"
         id="path6"
         style="fill:#fff200;fill-opacity:1" />
      <path
         transform="matrix(1,0,0,-1,370.0368,428.4668)"
         d="m 0,0 c 0,0 -2.572,-8.026 -2.325,-8.08 0.246,-0.042 4.018,-6.086 7.833,-7.779 L 32.265,-7.93 4.222,-21.849 c 0,0 -0.45,-11.595 1.039,-15.27 0,0 9.655,-3.858 14.617,-4.008 l 22.449,27.454 -16.899,-49.903 c 0,0 11.991,-12.741 22.3,-18.677 0,0 14.766,9.311 22.545,18.677 l -16.941,49.924 22.374,-27.475 c 0,0 12.516,2.176 14.734,3.986 0,0 1.533,5.98 1.254,15.077 L 63.201,-7.951 90.44,-15.666 c 0,0 4.169,2.368 7.576,7.576 0,0 -0.418,3.825 -2.154,6.879 0,0 -42.198,11.166 -95.862,1.211"
         fill="#005d94"
         id="path7"
         style="fill:#fff200;fill-opacity:1" />
    </g>
  </g>
</svg>
